<svg width="138" height="64" viewBox="0 0 138 64" fill="none" xmlns="http://www.w3.org/2000/svg">
<path d="M32.285 60.837C48.2107 60.837 61.121 47.9267 61.121 32.001C61.121 16.0754 48.2107 3.16504 32.285 3.16504C16.3593 3.16504 3.44897 16.0754 3.44897 32.001C3.44897 47.9267 16.3593 60.837 32.285 60.837Z" fill="white"/>
<path d="M31.941 0C40.892 0 48.513 3.125 54.798 9.372C57.806 12.381 60.093 15.82 61.655 19.686C63.216 23.553 63.999 27.657 63.999 32C63.999 36.381 63.226 40.486 61.685 44.313C60.142 48.141 57.865 51.523 54.857 54.456C51.734 57.541 48.191 59.904 44.228 61.542C40.267 63.18 36.171 63.999 31.943 63.999C27.715 63.999 23.667 63.191 19.8 61.57C15.934 59.952 12.467 57.609 9.4 54.543C6.333 51.477 4 48.019 2.4 44.171C0.8 40.323 0 36.267 0 32C0 27.771 0.809 23.705 2.428 19.8C4.047 15.895 6.4 12.4 9.485 9.314C15.58 3.106 23.065 0 31.941 0ZM32.057 5.772C24.743 5.772 18.59 8.325 13.599 13.429C11.084 15.982 9.151 18.848 7.799 22.029C6.445 25.21 5.77 28.534 5.77 32.001C5.77 35.43 6.445 38.735 7.799 41.914C9.152 45.097 11.084 47.935 13.599 50.43C16.113 52.926 18.95 54.829 22.114 56.145C25.275 57.459 28.59 58.116 32.057 58.116C35.485 58.116 38.807 57.451 42.03 56.117C45.249 54.782 48.151 52.86 50.743 50.346C55.733 45.47 58.227 39.356 58.227 32.002C58.227 28.459 57.579 25.107 56.284 21.945C54.991 18.783 53.104 15.965 50.63 13.487C45.484 8.344 39.295 5.772 32.057 5.772ZM31.656 26.687L27.369 28.916C26.911 27.965 26.35 27.297 25.684 26.916C25.017 26.536 24.398 26.345 23.826 26.345C20.97 26.345 19.54 28.23 19.54 32.002C19.54 33.716 19.902 35.086 20.625 36.115C21.349 37.144 22.416 37.659 23.826 37.659C25.693 37.659 27.007 36.744 27.77 34.916L31.712 36.916C30.874 38.479 29.712 39.707 28.226 40.602C26.742 41.498 25.103 41.945 23.312 41.945C20.455 41.945 18.149 41.07 16.397 39.316C14.645 37.564 13.769 35.126 13.769 32.003C13.769 28.955 14.655 26.537 16.426 24.746C18.197 22.956 20.435 22.06 23.141 22.06C27.104 22.058 29.941 23.601 31.656 26.687ZM50.113 26.687L45.884 28.916C45.427 27.965 44.864 27.297 44.198 26.916C43.53 26.536 42.891 26.345 42.284 26.345C39.427 26.345 37.997 28.23 37.997 32.002C37.997 33.716 38.36 35.086 39.083 36.115C39.806 37.144 40.872 37.659 42.284 37.659C44.149 37.659 45.464 36.744 46.225 34.916L50.225 36.916C49.35 38.479 48.168 39.707 46.684 40.602C45.198 41.498 43.579 41.945 41.827 41.945C38.931 41.945 36.618 41.07 34.886 39.316C33.15 37.564 32.284 35.126 32.284 32.003C32.284 28.955 33.169 26.537 34.942 24.746C36.712 22.956 38.95 22.06 41.655 22.06C45.617 22.058 48.438 23.601 50.113 26.687Z" fill="black"/>
<path d="M106.137 60.5823C121.753 60.5823 134.413 47.9227 134.413 32.3063C134.413 16.6899 121.753 4.03027 106.137 4.03027C90.5204 4.03027 77.8608 16.6899 77.8608 32.3063C77.8608 47.9227 90.5204 60.5823 106.137 60.5823Z" fill="white"/>
<path d="M105.943 0C114.931 0 122.513 3.085 128.685 9.257C134.893 15.467 138 23.048 138 32C138 40.991 134.951 48.476 128.855 54.456C122.379 60.819 114.742 64 105.943 64C97.294 64 89.79 60.856 83.429 54.57C77.144 48.284 74 40.762 74 32C74 23.239 77.144 15.658 83.429 9.258C89.601 3.085 97.104 0 105.943 0ZM106.057 5.772C98.781 5.772 92.629 8.325 87.6 13.429C82.38 18.763 79.771 24.954 79.771 32.001C79.771 39.087 82.361 45.221 87.541 50.399C92.722 55.581 98.893 58.17 106.055 58.17C113.178 58.17 119.389 55.563 124.684 50.342C129.713 45.504 132.227 39.39 132.227 31.999C132.227 24.723 129.674 18.534 124.571 13.428C119.467 8.324 113.295 5.772 106.057 5.772ZM114.629 24.057V37.142H110.973V52.684H101.029V37.143H97.373V24.057C97.373 23.485 97.573 23 97.972 22.6C98.373 22.201 98.859 22 99.429 22H112.573C113.106 22 113.583 22.2 114.001 22.6C114.418 23 114.629 23.486 114.629 24.057ZM101.542 15.829C101.542 12.821 103.027 11.315 106 11.315C108.973 11.315 110.457 12.819 110.457 15.829C110.457 18.8 108.971 20.286 106 20.286C103.029 20.286 101.542 18.8 101.542 15.829Z" fill="black"/>
</svg>
