<svg width="550" height="354" viewBox="0 0 550 354" fill="none" xmlns="http://www.w3.org/2000/svg">
<g clip-path="url(#clip0_773_286)">
<rect width="170" height="142" fill="#286983"/>
<rect x="10" y="10" width="30" height="30" fill="#EBBCBA"/>
<rect x="50" y="10" width="30" height="30" fill="#EBBCBA"/>
<rect x="90" y="10" width="30" height="30" fill="#EBBCBA"/>
<rect x="130" y="10" width="30" height="30" fill="#EBBCBA"/>
<rect x="10" y="50" width="30" height="30" fill="#EBBCBA"/>
<rect x="50" y="50" width="30" height="30" fill="#EBBCBA"/>
<rect x="90" y="50" width="30" height="30" fill="#EBBCBA"/>
<rect x="130" y="50" width="30" height="30" fill="#EBBCBA"/>
<path d="M51.7252 155.727V157.659H46.0022V155.727H51.7252ZM47.3122 165V155.057C47.3122 154.385 47.443 153.828 47.7046 153.385C47.9702 152.942 48.3324 152.61 48.7912 152.389C49.25 152.167 49.7712 152.057 50.3548 152.057C50.7492 152.057 51.1094 152.087 51.4354 152.147C51.7654 152.208 52.0109 152.262 52.1719 152.31L51.7131 154.242C51.6125 154.21 51.4877 154.18 51.3388 154.152C51.1939 154.123 51.045 154.109 50.8921 154.109C50.5138 154.109 50.2502 154.198 50.1013 154.375C49.9523 154.548 49.8779 154.792 49.8779 155.105V165H47.3122ZM55.868 152.636V165H53.2963V152.636H55.868ZM62.154 165.181C61.2002 165.181 60.3791 164.988 59.6909 164.602C59.0067 164.211 58.4795 163.66 58.1092 162.947C57.739 162.231 57.5538 161.384 57.5538 160.406C57.5538 159.452 57.739 158.615 58.1092 157.895C58.4795 157.174 59.0007 156.613 59.6728 156.21C60.3489 155.808 61.1418 155.607 62.0514 155.607C62.6631 155.607 63.2326 155.705 63.7598 155.902C64.2911 156.096 64.7539 156.387 65.1483 156.778C65.5467 157.168 65.8566 157.659 66.078 158.251C66.2993 158.838 66.41 159.527 66.41 160.315V161.022H58.5801V159.428H63.9892C63.9892 159.058 63.9087 158.73 63.7477 158.444C63.5868 158.158 63.3634 157.935 63.0776 157.774C62.7959 157.609 62.4679 157.526 62.0936 157.526C61.7032 157.526 61.3571 157.617 61.0553 157.798C60.7574 157.975 60.524 158.214 60.355 158.516C60.1859 158.814 60.0994 159.146 60.0954 159.512V161.028C60.0954 161.487 60.1799 161.883 60.3489 162.217C60.522 162.551 60.7655 162.809 61.0794 162.99C61.3933 163.171 61.7656 163.261 62.1962 163.261C62.482 163.261 62.7436 163.221 62.981 163.141C63.2185 163.06 63.4217 162.939 63.5908 162.778C63.7598 162.617 63.8886 162.42 63.9771 162.187L66.3557 162.344C66.235 162.915 65.9874 163.414 65.6131 163.841C65.2429 164.263 64.764 164.594 64.1764 164.831C63.5928 165.064 62.9187 165.181 62.154 165.181ZM70.0714 155.727L71.7738 158.969L73.5185 155.727H76.1566L73.4702 160.364L76.2291 165H73.603L71.7738 161.794L69.9748 165H67.3186L70.0714 160.364L67.4152 155.727H70.0714ZM83.0795 158.903V160.943H77.441V158.903H83.0795ZM92.9861 158.371L90.6317 158.516C90.5915 158.315 90.5049 158.134 90.3721 157.973C90.2393 157.808 90.0642 157.677 89.8469 157.581C89.6336 157.48 89.378 157.43 89.0802 157.43C88.6818 157.43 88.3457 157.514 88.072 157.683C87.7984 157.848 87.6615 158.07 87.6615 158.347C87.6615 158.569 87.7501 158.756 87.9272 158.909C88.1042 159.062 88.4081 159.184 88.8387 159.277L90.517 159.615C91.4185 159.8 92.0906 160.098 92.5333 160.509C92.976 160.919 93.1974 161.458 93.1974 162.126C93.1974 162.734 93.0183 163.267 92.6601 163.726C92.3059 164.185 91.819 164.543 91.1992 164.801C90.5834 165.054 89.8731 165.181 89.0681 165.181C87.8406 165.181 86.8626 164.926 86.1342 164.414C85.4098 163.899 84.9852 163.199 84.8604 162.314L87.3899 162.181C87.4663 162.555 87.6515 162.841 87.9453 163.038C88.2391 163.231 88.6154 163.328 89.0742 163.328C89.5249 163.328 89.8871 163.241 90.1608 163.068C90.4385 162.891 90.5794 162.664 90.5834 162.386C90.5794 162.153 90.4808 161.961 90.2876 161.812C90.0944 161.66 89.7966 161.543 89.3941 161.462L87.7883 161.142C86.8828 160.961 86.2086 160.647 85.7659 160.201C85.3273 159.754 85.1079 159.184 85.1079 158.492C85.1079 157.897 85.2689 157.383 85.5909 156.953C85.9169 156.522 86.3737 156.19 86.9612 155.957C87.5529 155.723 88.2451 155.607 89.038 155.607C90.2091 155.607 91.1308 155.854 91.8029 156.349C92.479 156.844 92.8734 157.518 92.9861 158.371ZM99.749 155.727V157.659H94.1648V155.727H99.749ZM95.4326 153.506H98.0043V162.151C98.0043 162.388 98.0405 162.573 98.113 162.706C98.1854 162.835 98.286 162.925 98.4148 162.978C98.5476 163.03 98.7006 163.056 98.8736 163.056C98.9944 163.056 99.1151 163.046 99.2358 163.026C99.3566 163.002 99.4491 162.984 99.5135 162.972L99.918 164.885C99.7892 164.926 99.6081 164.972 99.3747 165.024C99.1413 165.08 98.8575 165.115 98.5235 165.127C97.9037 165.151 97.3604 165.068 96.8935 164.879C96.4307 164.69 96.0705 164.396 95.8129 163.998C95.5553 163.599 95.4285 163.096 95.4326 162.489V153.506ZM104.068 165.175C103.477 165.175 102.95 165.072 102.487 164.867C102.024 164.658 101.658 164.35 101.388 163.944C101.122 163.533 100.99 163.022 100.99 162.41C100.99 161.895 101.084 161.462 101.273 161.112C101.462 160.762 101.72 160.48 102.046 160.267C102.372 160.054 102.742 159.893 103.157 159.784C103.575 159.675 104.014 159.599 104.473 159.555C105.012 159.498 105.447 159.446 105.777 159.398C106.107 159.345 106.346 159.269 106.495 159.168C106.644 159.068 106.719 158.919 106.719 158.722V158.685C106.719 158.303 106.598 158.007 106.356 157.798C106.119 157.589 105.781 157.484 105.342 157.484C104.879 157.484 104.511 157.587 104.237 157.792C103.964 157.993 103.783 158.247 103.694 158.553L101.316 158.359C101.436 157.796 101.674 157.309 102.028 156.898C102.382 156.484 102.839 156.166 103.398 155.945C103.962 155.719 104.614 155.607 105.354 155.607C105.869 155.607 106.362 155.667 106.833 155.788C107.308 155.908 107.729 156.096 108.095 156.349C108.465 156.603 108.757 156.929 108.97 157.327C109.184 157.721 109.29 158.194 109.29 158.746V165H106.851V163.714H106.779C106.63 164.004 106.431 164.259 106.181 164.481C105.932 164.698 105.632 164.869 105.282 164.994C104.932 165.115 104.527 165.175 104.068 165.175ZM104.805 163.4C105.183 163.4 105.517 163.326 105.807 163.177C106.097 163.024 106.324 162.819 106.489 162.561C106.654 162.304 106.737 162.012 106.737 161.686V160.702C106.656 160.754 106.546 160.802 106.405 160.847C106.268 160.887 106.113 160.925 105.94 160.961C105.767 160.993 105.594 161.024 105.421 161.052C105.248 161.076 105.091 161.098 104.95 161.118C104.648 161.163 104.384 161.233 104.159 161.33C103.934 161.426 103.759 161.557 103.634 161.722C103.509 161.883 103.447 162.084 103.447 162.326C103.447 162.676 103.573 162.943 103.827 163.129C104.085 163.31 104.41 163.4 104.805 163.4ZM111.286 165V155.727H113.779V157.345H113.875C114.044 156.77 114.328 156.335 114.727 156.041C115.125 155.743 115.584 155.594 116.103 155.594C116.232 155.594 116.371 155.603 116.52 155.619C116.668 155.635 116.799 155.657 116.912 155.685V157.967C116.791 157.931 116.624 157.899 116.411 157.87C116.198 157.842 116.002 157.828 115.825 157.828C115.447 157.828 115.109 157.911 114.811 158.076C114.517 158.237 114.284 158.462 114.111 158.752C113.942 159.042 113.857 159.376 113.857 159.754V165H111.286ZM123.639 155.727V157.659H118.054V155.727H123.639ZM119.322 153.506H121.894V162.151C121.894 162.388 121.93 162.573 122.003 162.706C122.075 162.835 122.176 162.925 122.304 162.978C122.437 163.03 122.59 163.056 122.763 163.056C122.884 163.056 123.005 163.046 123.125 163.026C123.246 163.002 123.339 162.984 123.403 162.972L123.808 164.885C123.679 164.926 123.498 164.972 123.264 165.024C123.031 165.08 122.747 165.115 122.413 165.127C121.793 165.151 121.25 165.068 120.783 164.879C120.32 164.69 119.96 164.396 119.703 163.998C119.445 163.599 119.318 163.096 119.322 162.489V153.506Z" fill="#286983"/>
<rect width="170" height="142" transform="translate(190)" fill="#286983"/>
<rect x="200" y="62" width="30" height="30" fill="#EBBCBA"/>
<rect x="240" y="62" width="30" height="30" fill="#EBBCBA"/>
<rect x="280" y="62" width="30" height="30" fill="#EBBCBA"/>
<rect x="320" y="62" width="30" height="30" fill="#EBBCBA"/>
<rect x="200" y="102" width="30" height="30" fill="#EBBCBA"/>
<rect x="240" y="102" width="30" height="30" fill="#EBBCBA"/>
<rect x="280" y="102" width="30" height="30" fill="#EBBCBA"/>
<rect x="320" y="102" width="30" height="30" fill="#EBBCBA"/>
<path d="M245.975 155.727V157.659H240.252V155.727H245.975ZM241.562 165V155.057C241.562 154.385 241.693 153.828 241.955 153.385C242.22 152.942 242.582 152.61 243.041 152.389C243.5 152.167 244.021 152.057 244.605 152.057C244.999 152.057 245.359 152.087 245.685 152.147C246.015 152.208 246.261 152.262 246.422 152.31L245.963 154.242C245.862 154.21 245.738 154.18 245.589 154.152C245.444 154.123 245.295 154.109 245.142 154.109C244.764 154.109 244.5 154.198 244.351 154.375C244.202 154.548 244.128 154.792 244.128 155.105V165H241.562ZM250.118 152.636V165H247.546V152.636H250.118ZM256.404 165.181C255.45 165.181 254.629 164.988 253.941 164.602C253.257 164.211 252.73 163.66 252.359 162.947C251.989 162.231 251.804 161.384 251.804 160.406C251.804 159.452 251.989 158.615 252.359 157.895C252.73 157.174 253.251 156.613 253.923 156.21C254.599 155.808 255.392 155.607 256.301 155.607C256.913 155.607 257.483 155.705 258.01 155.902C258.541 156.096 259.004 156.387 259.398 156.778C259.797 157.168 260.107 157.659 260.328 158.251C260.549 158.838 260.66 159.527 260.66 160.315V161.022H252.83V159.428H258.239C258.239 159.058 258.159 158.73 257.998 158.444C257.837 158.158 257.613 157.935 257.328 157.774C257.046 157.609 256.718 157.526 256.344 157.526C255.953 157.526 255.607 157.617 255.305 157.798C255.007 157.975 254.774 158.214 254.605 158.516C254.436 158.814 254.349 159.146 254.345 159.512V161.028C254.345 161.487 254.43 161.883 254.599 162.217C254.772 162.551 255.015 162.809 255.329 162.99C255.643 163.171 256.016 163.261 256.446 163.261C256.732 163.261 256.994 163.221 257.231 163.141C257.468 163.06 257.672 162.939 257.841 162.778C258.01 162.617 258.139 162.42 258.227 162.187L260.606 162.344C260.485 162.915 260.237 163.414 259.863 163.841C259.493 164.263 259.014 164.594 258.426 164.831C257.843 165.064 257.169 165.181 256.404 165.181ZM264.321 155.727L266.024 158.969L267.769 155.727H270.407L267.72 160.364L270.479 165H267.853L266.024 161.794L264.225 165H261.569L264.321 160.364L261.665 155.727H264.321ZM277.33 158.903V160.943H271.691V158.903H277.33ZM283.747 165.181C282.793 165.181 281.972 164.988 281.284 164.602C280.6 164.211 280.072 163.66 279.702 162.947C279.332 162.231 279.147 161.384 279.147 160.406C279.147 159.452 279.332 158.615 279.702 157.895C280.072 157.174 280.593 156.613 281.266 156.21C281.942 155.808 282.735 155.607 283.644 155.607C284.256 155.607 284.825 155.705 285.353 155.902C285.884 156.096 286.347 156.387 286.741 156.778C287.14 157.168 287.449 157.659 287.671 158.251C287.892 158.838 288.003 159.527 288.003 160.315V161.022H280.173V159.428H285.582C285.582 159.058 285.501 158.73 285.341 158.444C285.18 158.158 284.956 157.935 284.67 157.774C284.389 157.609 284.061 157.526 283.686 157.526C283.296 157.526 282.95 157.617 282.648 157.798C282.35 157.975 282.117 158.214 281.948 158.516C281.779 158.814 281.692 159.146 281.688 159.512V161.028C281.688 161.487 281.773 161.883 281.942 162.217C282.115 162.551 282.358 162.809 282.672 162.99C282.986 163.171 283.358 163.261 283.789 163.261C284.075 163.261 284.336 163.221 284.574 163.141C284.811 163.06 285.015 162.939 285.184 162.778C285.353 162.617 285.481 162.42 285.57 162.187L287.948 162.344C287.828 162.915 287.58 163.414 287.206 163.841C286.836 164.263 286.357 164.594 285.769 164.831C285.186 165.064 284.511 165.181 283.747 165.181ZM292.253 159.639V165H289.681V155.727H292.132V157.363H292.241C292.446 156.824 292.79 156.397 293.273 156.083C293.756 155.766 294.342 155.607 295.03 155.607C295.674 155.607 296.235 155.747 296.714 156.029C297.193 156.311 297.565 156.713 297.831 157.237C298.097 157.756 298.229 158.375 298.229 159.096V165H295.658V159.555C295.662 158.987 295.517 158.545 295.223 158.227C294.929 157.905 294.525 157.744 294.01 157.744C293.663 157.744 293.358 157.818 293.092 157.967C292.83 158.116 292.625 158.333 292.476 158.619C292.331 158.901 292.257 159.241 292.253 159.639ZM303.673 165.151C302.969 165.151 302.331 164.97 301.759 164.608C301.192 164.241 300.741 163.704 300.407 162.996C300.077 162.283 299.912 161.41 299.912 160.376C299.912 159.313 300.083 158.43 300.425 157.725C300.767 157.017 301.222 156.488 301.79 156.138C302.361 155.784 302.987 155.607 303.667 155.607C304.186 155.607 304.619 155.695 304.965 155.872C305.315 156.045 305.597 156.263 305.81 156.524C306.028 156.782 306.193 157.035 306.305 157.285H306.384V152.636H308.949V165H306.414V163.515H306.305C306.185 163.772 306.013 164.028 305.792 164.282C305.575 164.531 305.291 164.738 304.941 164.903C304.595 165.068 304.172 165.151 303.673 165.151ZM304.488 163.104C304.903 163.104 305.253 162.992 305.539 162.766C305.828 162.537 306.05 162.217 306.203 161.806C306.36 161.396 306.438 160.915 306.438 160.364C306.438 159.812 306.362 159.333 306.209 158.927C306.056 158.52 305.834 158.206 305.545 157.985C305.255 157.764 304.903 157.653 304.488 157.653C304.066 157.653 303.709 157.768 303.42 157.997C303.13 158.227 302.91 158.545 302.762 158.951C302.613 159.357 302.538 159.828 302.538 160.364C302.538 160.903 302.613 161.38 302.762 161.794C302.915 162.205 303.134 162.527 303.42 162.76C303.709 162.99 304.066 163.104 304.488 163.104Z" fill="#286983"/>
<rect width="170" height="142" transform="translate(380)" fill="#286983"/>
<rect x="390" y="36" width="30" height="30" fill="#EBBCBA"/>
<rect x="430" y="36" width="30" height="30" fill="#EBBCBA"/>
<rect x="470" y="36" width="30" height="30" fill="#EBBCBA"/>
<rect x="510" y="36" width="30" height="30" fill="#EBBCBA"/>
<rect x="390" y="76" width="30" height="30" fill="#EBBCBA"/>
<rect x="430" y="76" width="30" height="30" fill="#EBBCBA"/>
<rect x="470" y="76" width="30" height="30" fill="#EBBCBA"/>
<rect x="510" y="76" width="30" height="30" fill="#EBBCBA"/>
<path d="M443.047 165.181C442.098 165.181 441.281 164.98 440.596 164.577C439.916 164.171 439.393 163.607 439.027 162.887C438.665 162.167 438.484 161.338 438.484 160.4C438.484 159.45 438.667 158.617 439.033 157.901C439.403 157.18 439.928 156.619 440.609 156.216C441.289 155.81 442.098 155.607 443.035 155.607C443.844 155.607 444.553 155.753 445.16 156.047C445.768 156.341 446.249 156.754 446.603 157.285C446.957 157.816 447.153 158.44 447.189 159.156H444.762C444.694 158.693 444.512 158.321 444.219 158.039C443.929 157.754 443.549 157.611 443.078 157.611C442.679 157.611 442.331 157.719 442.033 157.937C441.739 158.15 441.51 158.462 441.345 158.873C441.18 159.283 441.098 159.78 441.098 160.364C441.098 160.955 441.178 161.458 441.339 161.873C441.504 162.287 441.735 162.603 442.033 162.821C442.331 163.038 442.679 163.147 443.078 163.147C443.371 163.147 443.635 163.086 443.868 162.966C444.106 162.845 444.301 162.67 444.454 162.44C444.611 162.207 444.714 161.927 444.762 161.601H447.189C447.149 162.31 446.955 162.933 446.609 163.473C446.267 164.008 445.794 164.426 445.191 164.728C444.587 165.03 443.872 165.181 443.047 165.181ZM453.061 165.181C452.107 165.181 451.286 164.988 450.598 164.602C449.914 164.211 449.387 163.66 449.016 162.947C448.646 162.231 448.461 161.384 448.461 160.406C448.461 159.452 448.646 158.615 449.016 157.895C449.387 157.174 449.908 156.613 450.58 156.21C451.256 155.808 452.049 155.607 452.959 155.607C453.57 155.607 454.14 155.705 454.667 155.902C455.198 156.096 455.661 156.387 456.056 156.778C456.454 157.168 456.764 157.659 456.985 158.251C457.207 158.838 457.317 159.527 457.317 160.315V161.022H449.487V159.428H454.896C454.896 159.058 454.816 158.73 454.655 158.444C454.494 158.158 454.271 157.935 453.985 157.774C453.703 157.609 453.375 157.526 453.001 157.526C452.61 157.526 452.264 157.617 451.962 157.798C451.665 157.975 451.431 158.214 451.262 158.516C451.093 158.814 451.007 159.146 451.003 159.512V161.028C451.003 161.487 451.087 161.883 451.256 162.217C451.429 162.551 451.673 162.809 451.987 162.99C452.301 163.171 452.673 163.261 453.103 163.261C453.389 163.261 453.651 163.221 453.888 163.141C454.126 163.06 454.329 162.939 454.498 162.778C454.667 162.617 454.796 162.42 454.884 162.187L457.263 162.344C457.142 162.915 456.895 163.414 456.52 163.841C456.15 164.263 455.671 164.594 455.084 164.831C454.5 165.064 453.826 165.181 453.061 165.181ZM461.567 159.639V165H458.996V155.727H461.447V157.363H461.555C461.76 156.824 462.105 156.397 462.587 156.083C463.07 155.766 463.656 155.607 464.344 155.607C464.988 155.607 465.55 155.747 466.029 156.029C466.507 156.311 466.88 156.713 467.145 157.237C467.411 157.756 467.544 158.375 467.544 159.096V165H464.972V159.555C464.976 158.987 464.831 158.545 464.537 158.227C464.244 157.905 463.839 157.744 463.324 157.744C462.978 157.744 462.672 157.818 462.406 157.967C462.145 158.116 461.94 158.333 461.791 158.619C461.646 158.901 461.571 159.241 461.567 159.639ZM474.503 155.727V157.659H468.919V155.727H474.503ZM470.186 153.506H472.758V162.151C472.758 162.388 472.794 162.573 472.867 162.706C472.939 162.835 473.04 162.925 473.169 162.978C473.302 163.03 473.454 163.056 473.628 163.056C473.748 163.056 473.869 163.046 473.99 163.026C474.11 163.002 474.203 162.984 474.267 162.972L474.672 164.885C474.543 164.926 474.362 164.972 474.129 165.024C473.895 165.08 473.611 165.115 473.277 165.127C472.658 165.151 472.114 165.068 471.647 164.879C471.185 164.69 470.824 164.396 470.567 163.998C470.309 163.599 470.182 163.096 470.186 162.489V153.506ZM480.304 165.181C479.351 165.181 478.53 164.988 477.841 164.602C477.157 164.211 476.63 163.66 476.26 162.947C475.889 162.231 475.704 161.384 475.704 160.406C475.704 159.452 475.889 158.615 476.26 157.895C476.63 157.174 477.151 156.613 477.823 156.21C478.499 155.808 479.292 155.607 480.202 155.607C480.813 155.607 481.383 155.705 481.91 155.902C482.441 156.096 482.904 156.387 483.299 156.778C483.697 157.168 484.007 157.659 484.228 158.251C484.45 158.838 484.56 159.527 484.56 160.315V161.022H476.731V159.428H482.14C482.14 159.058 482.059 158.73 481.898 158.444C481.737 158.158 481.514 157.935 481.228 157.774C480.946 157.609 480.618 157.526 480.244 157.526C479.854 157.526 479.508 157.617 479.206 157.798C478.908 157.975 478.674 158.214 478.505 158.516C478.336 158.814 478.25 159.146 478.246 159.512V161.028C478.246 161.487 478.33 161.883 478.499 162.217C478.672 162.551 478.916 162.809 479.23 162.99C479.544 163.171 479.916 163.261 480.347 163.261C480.632 163.261 480.894 163.221 481.131 163.141C481.369 163.06 481.572 162.939 481.741 162.778C481.91 162.617 482.039 162.42 482.128 162.187L484.506 162.344C484.385 162.915 484.138 163.414 483.764 163.841C483.393 164.263 482.914 164.594 482.327 164.831C481.743 165.064 481.069 165.181 480.304 165.181ZM486.239 165V155.727H488.732V157.345H488.829C488.998 156.77 489.281 156.335 489.68 156.041C490.078 155.743 490.537 155.594 491.056 155.594C491.185 155.594 491.324 155.603 491.473 155.619C491.622 155.635 491.752 155.657 491.865 155.685V157.967C491.744 157.931 491.577 157.899 491.364 157.87C491.151 157.842 490.956 157.828 490.778 157.828C490.4 157.828 490.062 157.911 489.764 158.076C489.47 158.237 489.237 158.462 489.064 158.752C488.895 159.042 488.81 159.376 488.81 159.754V165H486.239Z" fill="#286983"/>
<rect width="170" height="142" transform="translate(0 187)" fill="#286983"/>
<rect x="10" y="197" width="30" height="30" fill="#EBBCBA"/>
<rect x="50" y="197" width="30" height="30" fill="#EBBCBA"/>
<rect x="90" y="197" width="30" height="30" fill="#EBBCBA"/>
<rect x="130" y="197" width="30" height="30" fill="#EBBCBA"/>
<rect x="10" y="289" width="30" height="30" fill="#EBBCBA"/>
<rect x="50" y="289" width="30" height="30" fill="#EBBCBA"/>
<rect x="90" y="289" width="30" height="30" fill="#EBBCBA"/>
<rect x="130" y="289" width="30" height="30" fill="#EBBCBA"/>
<path d="M28.2566 345.371L25.9022 345.516C25.862 345.315 25.7754 345.134 25.6426 344.973C25.5098 344.808 25.3347 344.677 25.1174 344.581C24.9041 344.48 24.6485 344.43 24.3507 344.43C23.9523 344.43 23.6162 344.514 23.3426 344.683C23.0689 344.848 22.932 345.07 22.932 345.347C22.932 345.569 23.0206 345.756 23.1977 345.909C23.3747 346.062 23.6786 346.184 24.1092 346.277L25.7875 346.615C26.689 346.8 27.3611 347.098 27.8038 347.509C28.2466 347.919 28.4679 348.458 28.4679 349.126C28.4679 349.734 28.2888 350.267 27.9306 350.726C27.5765 351.185 27.0895 351.543 26.4697 351.801C25.8539 352.054 25.1436 352.181 24.3386 352.181C23.1111 352.181 22.1332 351.926 21.4047 351.414C20.6803 350.899 20.2557 350.199 20.1309 349.314L22.6604 349.181C22.7368 349.555 22.922 349.841 23.2158 350.038C23.5096 350.231 23.8859 350.328 24.3447 350.328C24.7954 350.328 25.1577 350.241 25.4313 350.068C25.709 349.891 25.8499 349.664 25.8539 349.386C25.8499 349.153 25.7513 348.961 25.5581 348.812C25.3649 348.66 25.0671 348.543 24.6646 348.462L23.0588 348.142C22.1533 347.961 21.4792 347.647 21.0364 347.201C20.5978 346.754 20.3784 346.184 20.3784 345.492C20.3784 344.897 20.5394 344.383 20.8614 343.953C21.1874 343.522 21.6442 343.19 22.2318 342.957C22.8234 342.723 23.5156 342.607 24.3085 342.607C25.4796 342.607 26.4013 342.854 27.0734 343.349C27.7495 343.844 28.1439 344.518 28.2566 345.371ZM30.0873 355.477V342.727H32.6228V344.285H32.7375C32.8502 344.035 33.0132 343.782 33.2265 343.524C33.4438 343.263 33.7256 343.045 34.0717 342.872C34.4218 342.695 34.8565 342.607 35.3757 342.607C36.0518 342.607 36.6756 342.784 37.2471 343.138C37.8186 343.488 38.2754 344.017 38.6175 344.725C38.9596 345.43 39.1306 346.313 39.1306 347.376C39.1306 348.41 38.9636 349.283 38.6296 349.996C38.2996 350.704 37.8488 351.241 37.2773 351.608C36.7098 351.97 36.0739 352.151 35.3696 352.151C34.8706 352.151 34.446 352.068 34.0958 351.903C33.7497 351.738 33.466 351.531 33.2446 351.282C33.0233 351.028 32.8542 350.772 32.7375 350.515H32.659V355.477H30.0873ZM32.6047 347.364C32.6047 347.915 32.6812 348.396 32.8341 348.806C32.9871 349.217 33.2084 349.537 33.4982 349.766C33.788 349.992 34.1401 350.104 34.5546 350.104C34.9732 350.104 35.3274 349.99 35.6171 349.76C35.9069 349.527 36.1263 349.205 36.2752 348.794C36.4281 348.38 36.5046 347.903 36.5046 347.364C36.5046 346.828 36.4301 346.357 36.2812 345.951C36.1323 345.545 35.913 345.227 35.6232 344.997C35.3334 344.768 34.9772 344.653 34.5546 344.653C34.1361 344.653 33.7819 344.764 33.4921 344.985C33.2064 345.206 32.9871 345.52 32.8341 345.927C32.6812 346.333 32.6047 346.812 32.6047 347.364ZM43.4893 352.175C42.8977 352.175 42.3705 352.072 41.9076 351.867C41.4448 351.658 41.0786 351.35 40.8089 350.944C40.5433 350.533 40.4105 350.022 40.4105 349.41C40.4105 348.895 40.505 348.462 40.6942 348.112C40.8834 347.762 41.1409 347.48 41.4669 347.267C41.7929 347.054 42.1632 346.893 42.5777 346.784C42.9963 346.675 43.435 346.599 43.8938 346.555C44.4331 346.498 44.8677 346.446 45.1978 346.398C45.5278 346.345 45.7672 346.269 45.9161 346.168C46.0651 346.068 46.1395 345.919 46.1395 345.722V345.685C46.1395 345.303 46.0188 345.007 45.7773 344.798C45.5398 344.589 45.2018 344.484 44.7631 344.484C44.3003 344.484 43.932 344.587 43.6583 344.792C43.3847 344.993 43.2036 345.247 43.115 345.553L40.7365 345.359C40.8572 344.796 41.0947 344.309 41.4488 343.898C41.803 343.484 42.2598 343.166 42.8192 342.945C43.3826 342.719 44.0346 342.607 44.7752 342.607C45.2903 342.607 45.7833 342.667 46.2542 342.788C46.7291 342.908 47.1497 343.096 47.5159 343.349C47.8862 343.603 48.178 343.929 48.3913 344.327C48.6046 344.721 48.7112 345.194 48.7112 345.746V352H46.2723V350.714H46.1999C46.051 351.004 45.8518 351.259 45.6022 351.481C45.3527 351.698 45.0529 351.869 44.7027 351.994C44.3526 352.115 43.9481 352.175 43.4893 352.175ZM44.2258 350.4C44.6041 350.4 44.9382 350.326 45.2279 350.177C45.5177 350.024 45.7451 349.819 45.9101 349.561C46.0751 349.304 46.1576 349.012 46.1576 348.686V347.702C46.0771 347.754 45.9665 347.802 45.8256 347.847C45.6888 347.887 45.5338 347.925 45.3608 347.961C45.1877 347.993 45.0146 348.024 44.8416 348.052C44.6685 348.076 44.5116 348.098 44.3707 348.118C44.0688 348.163 43.8052 348.233 43.5799 348.33C43.3545 348.426 43.1794 348.557 43.0546 348.722C42.9299 348.883 42.8675 349.084 42.8675 349.326C42.8675 349.676 42.9943 349.943 43.2478 350.129C43.5054 350.31 43.8314 350.4 44.2258 350.4ZM54.8961 352.181C53.9463 352.181 53.1293 351.98 52.4451 351.577C51.7649 351.171 51.2417 350.607 50.8755 349.887C50.5133 349.167 50.3322 348.338 50.3322 347.4C50.3322 346.45 50.5153 345.617 50.8815 344.901C51.2518 344.18 51.777 343.619 52.4572 343.216C53.1373 342.81 53.9463 342.607 54.884 342.607C55.693 342.607 56.4013 342.753 57.009 343.047C57.6167 343.341 58.0977 343.754 58.4518 344.285C58.806 344.816 59.0012 345.44 59.0374 346.156H56.6106C56.5422 345.693 56.361 345.321 56.0673 345.039C55.7775 344.754 55.3972 344.611 54.9263 344.611C54.5278 344.611 54.1797 344.719 53.8819 344.937C53.5881 345.15 53.3587 345.462 53.1937 345.873C53.0287 346.283 52.9462 346.78 52.9462 347.364C52.9462 347.955 53.0266 348.458 53.1876 348.873C53.3526 349.287 53.5841 349.603 53.8819 349.821C54.1797 350.038 54.5278 350.147 54.9263 350.147C55.2201 350.147 55.4837 350.086 55.7171 349.966C55.9546 349.845 56.1498 349.67 56.3027 349.44C56.4597 349.207 56.5623 348.927 56.6106 348.601H59.0374C58.9972 349.31 58.804 349.933 58.4579 350.473C58.1158 351.008 57.6429 351.426 57.0392 351.728C56.4355 352.03 55.7211 352.181 54.8961 352.181ZM64.9098 352.181C63.956 352.181 63.135 351.988 62.4468 351.602C61.7626 351.211 61.2354 350.66 60.8651 349.947C60.4948 349.231 60.3097 348.384 60.3097 347.406C60.3097 346.452 60.4948 345.615 60.8651 344.895C61.2354 344.174 61.7566 343.613 62.4287 343.21C63.1048 342.808 63.8977 342.607 64.8072 342.607C65.419 342.607 65.9884 342.705 66.5157 342.902C67.0469 343.096 67.5098 343.387 67.9042 343.778C68.3026 344.168 68.6125 344.659 68.8339 345.251C69.0552 345.838 69.1659 346.527 69.1659 347.315V348.022H61.336V346.428H66.7451C66.7451 346.058 66.6646 345.73 66.5036 345.444C66.3426 345.158 66.1192 344.935 65.8335 344.774C65.5518 344.609 65.2238 344.526 64.8495 344.526C64.4591 344.526 64.113 344.617 63.8111 344.798C63.5133 344.975 63.2799 345.214 63.1108 345.516C62.9418 345.814 62.8553 346.146 62.8513 346.512V348.028C62.8513 348.487 62.9358 348.883 63.1048 349.217C63.2779 349.551 63.5214 349.809 63.8353 349.99C64.1492 350.171 64.5215 350.261 64.9521 350.261C65.2379 350.261 65.4995 350.221 65.7369 350.141C65.9744 350.06 66.1776 349.939 66.3466 349.778C66.5157 349.617 66.6445 349.42 66.733 349.187L69.1116 349.344C68.9908 349.915 68.7433 350.414 68.369 350.841C67.9987 351.263 67.5198 351.594 66.9322 351.831C66.3486 352.064 65.6745 352.181 64.9098 352.181ZM76.6215 345.903V347.943H70.983V345.903H76.6215ZM78.8612 352V339.636H81.4329V344.285H81.5114C81.6241 344.035 81.7871 343.782 82.0004 343.524C82.2177 343.263 82.4995 343.045 82.8456 342.872C83.1957 342.695 83.6304 342.607 84.1495 342.607C84.8257 342.607 85.4495 342.784 86.021 343.138C86.5925 343.488 87.0493 344.017 87.3914 344.725C87.7335 345.43 87.9045 346.313 87.9045 347.376C87.9045 348.41 87.7375 349.283 87.4035 349.996C87.0734 350.704 86.6227 351.241 86.0512 351.608C85.4837 351.97 84.8478 352.151 84.1435 352.151C83.6445 352.151 83.2199 352.068 82.8697 351.903C82.5236 351.738 82.2399 351.531 82.0185 351.282C81.7972 351.028 81.6281 350.772 81.5114 350.515H81.3967V352H78.8612ZM81.3786 347.364C81.3786 347.915 81.4551 348.396 81.608 348.806C81.7609 349.217 81.9823 349.537 82.2721 349.766C82.5618 349.992 82.914 350.104 83.3285 350.104C83.7471 350.104 84.1013 349.99 84.391 349.76C84.6808 349.527 84.9001 349.205 85.0491 348.794C85.202 348.38 85.2785 347.903 85.2785 347.364C85.2785 346.828 85.204 346.357 85.0551 345.951C84.9062 345.545 84.6868 345.227 84.3971 344.997C84.1073 344.768 83.7511 344.653 83.3285 344.653C82.91 344.653 82.5558 344.764 82.266 344.985C81.9803 345.206 81.7609 345.52 81.608 345.927C81.4551 346.333 81.3786 346.812 81.3786 347.364ZM93.8464 352.181C92.8925 352.181 92.0715 351.988 91.3833 351.602C90.6991 351.211 90.1719 350.66 89.8016 349.947C89.4314 349.231 89.2462 348.384 89.2462 347.406C89.2462 346.452 89.4314 345.615 89.8016 344.895C90.1719 344.174 90.6931 343.613 91.3652 343.21C92.0413 342.808 92.8342 342.607 93.7437 342.607C94.3555 342.607 94.925 342.705 95.4522 342.902C95.9834 343.096 96.4463 343.387 96.8407 343.778C97.2391 344.168 97.549 344.659 97.7704 345.251C97.9917 345.838 98.1024 346.527 98.1024 347.315V348.022H90.2725V346.428H95.6816C95.6816 346.058 95.6011 345.73 95.4401 345.444C95.2791 345.158 95.0558 344.935 94.77 344.774C94.4883 344.609 94.1603 344.526 93.786 344.526C93.3956 344.526 93.0495 344.617 92.7476 344.798C92.4498 344.975 92.2164 345.214 92.0474 345.516C91.8783 345.814 91.7918 346.146 91.7878 346.512V348.028C91.7878 348.487 91.8723 348.883 92.0413 349.217C92.2144 349.551 92.4579 349.809 92.7718 349.99C93.0857 350.171 93.458 350.261 93.8886 350.261C94.1744 350.261 94.436 350.221 94.6734 350.141C94.9109 350.06 95.1141 349.939 95.2832 349.778C95.4522 349.617 95.581 349.42 95.6695 349.187L98.0481 349.344C97.9273 349.915 97.6798 350.414 97.3055 350.841C96.9353 351.263 96.4563 351.594 95.8687 351.831C95.2852 352.064 94.611 352.181 93.8464 352.181ZM104.713 342.727V344.659H99.1287V342.727H104.713ZM100.396 340.506H102.968V349.151C102.968 349.388 103.004 349.573 103.077 349.706C103.149 349.835 103.25 349.925 103.379 349.978C103.511 350.03 103.664 350.056 103.837 350.056C103.958 350.056 104.079 350.046 104.2 350.026C104.32 350.002 104.413 349.984 104.477 349.972L104.882 351.885C104.753 351.926 104.572 351.972 104.339 352.024C104.105 352.08 103.821 352.115 103.487 352.127C102.868 352.151 102.324 352.068 101.857 351.879C101.395 351.69 101.034 351.396 100.777 350.998C100.519 350.599 100.392 350.096 100.396 349.489V340.506ZM108.217 352L105.694 342.727H108.296L109.733 348.957H109.817L111.314 342.727H113.868L115.389 348.921H115.468L116.88 342.727H119.476L116.959 352H114.236L112.642 346.168H112.528L110.934 352H108.217ZM124.841 352.181C123.888 352.181 123.067 351.988 122.378 351.602C121.694 351.211 121.167 350.66 120.797 349.947C120.426 349.231 120.241 348.384 120.241 347.406C120.241 346.452 120.426 345.615 120.797 344.895C121.167 344.174 121.688 343.613 122.36 343.21C123.036 342.808 123.829 342.607 124.739 342.607C125.351 342.607 125.92 342.705 126.447 342.902C126.979 343.096 127.441 343.387 127.836 343.778C128.234 344.168 128.544 344.659 128.765 345.251C128.987 345.838 129.098 346.527 129.098 347.315V348.022H121.268V346.428H126.677C126.677 346.058 126.596 345.73 126.435 345.444C126.274 345.158 126.051 344.935 125.765 344.774C125.483 344.609 125.155 344.526 124.781 344.526C124.391 344.526 124.045 344.617 123.743 344.798C123.445 344.975 123.212 345.214 123.042 345.516C122.873 345.814 122.787 346.146 122.783 346.512V348.028C122.783 348.487 122.867 348.883 123.036 349.217C123.21 349.551 123.453 349.809 123.767 349.99C124.081 350.171 124.453 350.261 124.884 350.261C125.169 350.261 125.431 350.221 125.669 350.141C125.906 350.06 126.109 349.939 126.278 349.778C126.447 349.617 126.576 349.42 126.665 349.187L129.043 349.344C128.922 349.915 128.675 350.414 128.301 350.841C127.93 351.263 127.451 351.594 126.864 351.831C126.28 352.064 125.606 352.181 124.841 352.181ZM135.002 352.181C134.048 352.181 133.227 351.988 132.539 351.602C131.854 351.211 131.327 350.66 130.957 349.947C130.587 349.231 130.402 348.384 130.402 347.406C130.402 346.452 130.587 345.615 130.957 344.895C131.327 344.174 131.848 343.613 132.52 343.21C133.197 342.808 133.989 342.607 134.899 342.607C135.511 342.607 136.08 342.705 136.607 342.902C137.139 343.096 137.602 343.387 137.996 343.778C138.394 344.168 138.704 344.659 138.926 345.251C139.147 345.838 139.258 346.527 139.258 347.315V348.022H131.428V346.428H136.837C136.837 346.058 136.756 345.73 136.595 345.444C136.434 345.158 136.211 344.935 135.925 344.774C135.644 344.609 135.316 344.526 134.941 344.526C134.551 344.526 134.205 344.617 133.903 344.798C133.605 344.975 133.372 345.214 133.203 345.516C133.034 345.814 132.947 346.146 132.943 346.512V348.028C132.943 348.487 133.028 348.883 133.197 349.217C133.37 349.551 133.613 349.809 133.927 349.99C134.241 350.171 134.613 350.261 135.044 350.261C135.33 350.261 135.591 350.221 135.829 350.141C136.066 350.06 136.269 349.939 136.438 349.778C136.607 349.617 136.736 349.42 136.825 349.187L139.203 349.344C139.083 349.915 138.835 350.414 138.461 350.841C138.091 351.263 137.612 351.594 137.024 351.831C136.44 352.064 135.766 352.181 135.002 352.181ZM143.508 346.639V352H140.936V342.727H143.387V344.363H143.496C143.701 343.824 144.045 343.397 144.528 343.083C145.011 342.766 145.596 342.607 146.285 342.607C146.929 342.607 147.49 342.747 147.969 343.029C148.448 343.311 148.82 343.713 149.086 344.237C149.351 344.756 149.484 345.375 149.484 346.096V352H146.913V346.555C146.917 345.987 146.772 345.545 146.478 345.227C146.184 344.905 145.78 344.744 145.264 344.744C144.918 344.744 144.612 344.818 144.347 344.967C144.085 345.116 143.88 345.333 143.731 345.619C143.586 345.901 143.512 346.241 143.508 346.639Z" fill="#286983"/>
<rect width="170" height="142" transform="translate(190 187)" fill="#286983"/>
<rect x="200" y="212.5" width="30" height="30" fill="#EBBCBA"/>
<rect x="240" y="212.5" width="30" height="30" fill="#EBBCBA"/>
<rect x="280" y="212.5" width="30" height="30" fill="#EBBCBA"/>
<rect x="320" y="212.5" width="30" height="30" fill="#EBBCBA"/>
<rect x="200" y="273.5" width="30" height="30" fill="#EBBCBA"/>
<rect x="240" y="273.5" width="30" height="30" fill="#EBBCBA"/>
<rect x="280" y="273.5" width="30" height="30" fill="#EBBCBA"/>
<rect x="320" y="273.5" width="30" height="30" fill="#EBBCBA"/>
<path d="M225.221 345.371L222.867 345.516C222.826 345.315 222.74 345.134 222.607 344.973C222.474 344.808 222.299 344.677 222.082 344.581C221.868 344.48 221.613 344.43 221.315 344.43C220.917 344.43 220.581 344.514 220.307 344.683C220.033 344.848 219.896 345.07 219.896 345.347C219.896 345.569 219.985 345.756 220.162 345.909C220.339 346.062 220.643 346.184 221.074 346.277L222.752 346.615C223.653 346.8 224.325 347.098 224.768 347.509C225.211 347.919 225.432 348.458 225.432 349.126C225.432 349.734 225.253 350.267 224.895 350.726C224.541 351.185 224.054 351.543 223.434 351.801C222.818 352.054 222.108 352.181 221.303 352.181C220.075 352.181 219.098 351.926 218.369 351.414C217.645 350.899 217.22 350.199 217.095 349.314L219.625 349.181C219.701 349.555 219.886 349.841 220.18 350.038C220.474 350.231 220.85 350.328 221.309 350.328C221.76 350.328 222.122 350.241 222.396 350.068C222.673 349.891 222.814 349.664 222.818 349.386C222.814 349.153 222.716 348.961 222.522 348.812C222.329 348.66 222.031 348.543 221.629 348.462L220.023 348.142C219.118 347.961 218.444 347.647 218.001 347.201C217.562 346.754 217.343 346.184 217.343 345.492C217.343 344.897 217.504 344.383 217.826 343.953C218.152 343.522 218.609 343.19 219.196 342.957C219.788 342.723 220.48 342.607 221.273 342.607C222.444 342.607 223.366 342.854 224.038 343.349C224.714 343.844 225.108 344.518 225.221 345.371ZM227.052 355.477V342.727H229.587V344.285H229.702C229.815 344.035 229.978 343.782 230.191 343.524C230.408 343.263 230.69 343.045 231.036 342.872C231.386 342.695 231.821 342.607 232.34 342.607C233.016 342.607 233.64 342.784 234.211 343.138C234.783 343.488 235.24 344.017 235.582 344.725C235.924 345.43 236.095 346.313 236.095 347.376C236.095 348.41 235.928 349.283 235.594 349.996C235.264 350.704 234.813 351.241 234.242 351.608C233.674 351.97 233.038 352.151 232.334 352.151C231.835 352.151 231.41 352.068 231.06 351.903C230.714 351.738 230.43 351.531 230.209 351.282C229.988 351.028 229.819 350.772 229.702 350.515H229.623V355.477H227.052ZM229.569 347.364C229.569 347.915 229.646 348.396 229.798 348.806C229.951 349.217 230.173 349.537 230.463 349.766C230.752 349.992 231.104 350.104 231.519 350.104C231.938 350.104 232.292 349.99 232.581 349.76C232.871 349.527 233.091 349.205 233.24 348.794C233.392 348.38 233.469 347.903 233.469 347.364C233.469 346.828 233.394 346.357 233.246 345.951C233.097 345.545 232.877 345.227 232.588 344.997C232.298 344.768 231.942 344.653 231.519 344.653C231.1 344.653 230.746 344.764 230.456 344.985C230.171 345.206 229.951 345.52 229.798 345.927C229.646 346.333 229.569 346.812 229.569 347.364ZM240.454 352.175C239.862 352.175 239.335 352.072 238.872 351.867C238.409 351.658 238.043 351.35 237.773 350.944C237.508 350.533 237.375 350.022 237.375 349.41C237.375 348.895 237.469 348.462 237.659 348.112C237.848 347.762 238.105 347.48 238.431 347.267C238.757 347.054 239.128 346.893 239.542 346.784C239.961 346.675 240.399 346.599 240.858 346.555C241.397 346.498 241.832 346.446 242.162 346.398C242.492 346.345 242.732 346.269 242.881 346.168C243.029 346.068 243.104 345.919 243.104 345.722V345.685C243.104 345.303 242.983 345.007 242.742 344.798C242.504 344.589 242.166 344.484 241.727 344.484C241.265 344.484 240.896 344.587 240.623 344.792C240.349 344.993 240.168 345.247 240.079 345.553L237.701 345.359C237.822 344.796 238.059 344.309 238.413 343.898C238.767 343.484 239.224 343.166 239.784 342.945C240.347 342.719 240.999 342.607 241.74 342.607C242.255 342.607 242.748 342.667 243.219 342.788C243.693 342.908 244.114 343.096 244.48 343.349C244.851 343.603 245.142 343.929 245.356 344.327C245.569 344.721 245.676 345.194 245.676 345.746V352H243.237V350.714H243.164C243.015 351.004 242.816 351.259 242.567 351.481C242.317 351.698 242.017 351.869 241.667 351.994C241.317 352.115 240.912 352.175 240.454 352.175ZM241.19 350.4C241.568 350.4 241.903 350.326 242.192 350.177C242.482 350.024 242.709 349.819 242.874 349.561C243.039 349.304 243.122 349.012 243.122 348.686V347.702C243.041 347.754 242.931 347.802 242.79 347.847C242.653 347.887 242.498 347.925 242.325 347.961C242.152 347.993 241.979 348.024 241.806 348.052C241.633 348.076 241.476 348.098 241.335 348.118C241.033 348.163 240.77 348.233 240.544 348.33C240.319 348.426 240.144 348.557 240.019 348.722C239.894 348.883 239.832 349.084 239.832 349.326C239.832 349.676 239.959 349.943 240.212 350.129C240.47 350.31 240.796 350.4 241.19 350.4ZM251.86 352.181C250.911 352.181 250.094 351.98 249.409 351.577C248.729 351.171 248.206 350.607 247.84 349.887C247.478 349.167 247.297 348.338 247.297 347.4C247.297 346.45 247.48 345.617 247.846 344.901C248.216 344.18 248.741 343.619 249.422 343.216C250.102 342.81 250.911 342.607 251.848 342.607C252.657 342.607 253.366 342.753 253.973 343.047C254.581 343.341 255.062 343.754 255.416 344.285C255.77 344.816 255.966 345.44 256.002 346.156H253.575C253.507 345.693 253.325 345.321 253.032 345.039C252.742 344.754 252.362 344.611 251.891 344.611C251.492 344.611 251.144 344.719 250.846 344.937C250.552 345.15 250.323 345.462 250.158 345.873C249.993 346.283 249.911 346.78 249.911 347.364C249.911 347.955 249.991 348.458 250.152 348.873C250.317 349.287 250.548 349.603 250.846 349.821C251.144 350.038 251.492 350.147 251.891 350.147C252.184 350.147 252.448 350.086 252.681 349.966C252.919 349.845 253.114 349.67 253.267 349.44C253.424 349.207 253.527 348.927 253.575 348.601H256.002C255.962 349.31 255.768 349.933 255.422 350.473C255.08 351.008 254.607 351.426 254.004 351.728C253.4 352.03 252.685 352.181 251.86 352.181ZM261.874 352.181C260.92 352.181 260.099 351.988 259.411 351.602C258.727 351.211 258.2 350.66 257.829 349.947C257.459 349.231 257.274 348.384 257.274 347.406C257.274 346.452 257.459 345.615 257.829 344.895C258.2 344.174 258.721 343.613 259.393 343.21C260.069 342.808 260.862 342.607 261.772 342.607C262.383 342.607 262.953 342.705 263.48 342.902C264.011 343.096 264.474 343.387 264.869 343.778C265.267 344.168 265.577 344.659 265.798 345.251C266.02 345.838 266.13 346.527 266.13 347.315V348.022H258.3V346.428H263.709C263.709 346.058 263.629 345.73 263.468 345.444C263.307 345.158 263.084 344.935 262.798 344.774C262.516 344.609 262.188 344.526 261.814 344.526C261.423 344.526 261.077 344.617 260.775 344.798C260.478 344.975 260.244 345.214 260.075 345.516C259.906 345.814 259.82 346.146 259.816 346.512V348.028C259.816 348.487 259.9 348.883 260.069 349.217C260.242 349.551 260.486 349.809 260.8 349.99C261.114 350.171 261.486 350.261 261.916 350.261C262.202 350.261 262.464 350.221 262.701 350.141C262.939 350.06 263.142 349.939 263.311 349.778C263.48 349.617 263.609 349.42 263.697 349.187L266.076 349.344C265.955 349.915 265.708 350.414 265.333 350.841C264.963 351.263 264.484 351.594 263.897 351.831C263.313 352.064 262.639 352.181 261.874 352.181ZM273.586 345.903V347.943H267.947V345.903H273.586ZM278.421 352.175C277.83 352.175 277.303 352.072 276.84 351.867C276.377 351.658 276.011 351.35 275.741 350.944C275.475 350.533 275.343 350.022 275.343 349.41C275.343 348.895 275.437 348.462 275.626 348.112C275.815 347.762 276.073 347.48 276.399 347.267C276.725 347.054 277.095 346.893 277.51 346.784C277.928 346.675 278.367 346.599 278.826 346.555C279.365 346.498 279.8 346.446 280.13 346.398C280.46 346.345 280.699 346.269 280.848 346.168C280.997 346.068 281.072 345.919 281.072 345.722V345.685C281.072 345.303 280.951 345.007 280.709 344.798C280.472 344.589 280.134 344.484 279.695 344.484C279.232 344.484 278.864 344.587 278.59 344.792C278.317 344.993 278.136 345.247 278.047 345.553L275.669 345.359C275.789 344.796 276.027 344.309 276.381 343.898C276.735 343.484 277.192 343.166 277.751 342.945C278.315 342.719 278.967 342.607 279.707 342.607C280.222 342.607 280.715 342.667 281.186 342.788C281.661 342.908 282.082 343.096 282.448 343.349C282.818 343.603 283.11 343.929 283.323 344.327C283.537 344.721 283.643 345.194 283.643 345.746V352H281.204V350.714H281.132C280.983 351.004 280.784 351.259 280.534 351.481C280.285 351.698 279.985 351.869 279.635 351.994C279.285 352.115 278.88 352.175 278.421 352.175ZM279.158 350.4C279.536 350.4 279.87 350.326 280.16 350.177C280.45 350.024 280.677 349.819 280.842 349.561C281.007 349.304 281.09 349.012 281.09 348.686V347.702C281.009 347.754 280.899 347.802 280.758 347.847C280.621 347.887 280.466 347.925 280.293 347.961C280.12 347.993 279.947 348.024 279.774 348.052C279.601 348.076 279.444 348.098 279.303 348.118C279.001 348.163 278.737 348.233 278.512 348.33C278.287 348.426 278.112 348.557 277.987 348.722C277.862 348.883 277.8 349.084 277.8 349.326C277.8 349.676 277.926 349.943 278.18 350.129C278.438 350.31 278.764 350.4 279.158 350.4ZM285.639 352V342.727H288.132V344.345H288.228C288.397 343.77 288.681 343.335 289.08 343.041C289.478 342.743 289.937 342.594 290.456 342.594C290.585 342.594 290.724 342.603 290.873 342.619C291.022 342.635 291.152 342.657 291.265 342.685V344.967C291.144 344.931 290.977 344.899 290.764 344.87C290.551 344.842 290.355 344.828 290.178 344.828C289.8 344.828 289.462 344.911 289.164 345.076C288.87 345.237 288.637 345.462 288.464 345.752C288.295 346.042 288.21 346.376 288.21 346.754V352H285.639ZM296.353 352.181C295.415 352.181 294.604 351.982 293.92 351.583C293.24 351.181 292.714 350.622 292.344 349.905C291.974 349.185 291.789 348.35 291.789 347.4C291.789 346.442 291.974 345.605 292.344 344.888C292.714 344.168 293.24 343.609 293.92 343.21C294.604 342.808 295.415 342.607 296.353 342.607C297.29 342.607 298.099 342.808 298.779 343.21C299.464 343.609 299.991 344.168 300.361 344.888C300.731 345.605 300.917 346.442 300.917 347.4C300.917 348.35 300.731 349.185 300.361 349.905C299.991 350.622 299.464 351.181 298.779 351.583C298.099 351.982 297.29 352.181 296.353 352.181ZM296.365 350.189C296.791 350.189 297.147 350.068 297.433 349.827C297.719 349.581 297.934 349.247 298.079 348.825C298.228 348.402 298.303 347.921 298.303 347.382C298.303 346.842 298.228 346.362 298.079 345.939C297.934 345.516 297.719 345.182 297.433 344.937C297.147 344.691 296.791 344.569 296.365 344.569C295.934 344.569 295.572 344.691 295.278 344.937C294.988 345.182 294.769 345.516 294.62 345.939C294.475 346.362 294.403 346.842 294.403 347.382C294.403 347.921 294.475 348.402 294.62 348.825C294.769 349.247 294.988 349.581 295.278 349.827C295.572 350.068 295.934 350.189 296.365 350.189ZM308.535 348.052V342.727H311.107V352H308.638V350.316H308.541C308.332 350.859 307.984 351.296 307.497 351.626C307.014 351.956 306.424 352.121 305.728 352.121C305.108 352.121 304.563 351.98 304.092 351.698C303.621 351.416 303.253 351.016 302.987 350.497C302.726 349.978 302.593 349.356 302.589 348.631V342.727H305.161V348.173C305.165 348.72 305.311 349.153 305.601 349.471C305.891 349.788 306.279 349.947 306.766 349.947C307.076 349.947 307.366 349.877 307.636 349.736C307.905 349.591 308.123 349.378 308.288 349.096C308.457 348.815 308.539 348.466 308.535 348.052ZM315.736 346.639V352H313.164V342.727H315.615V344.363H315.724C315.929 343.824 316.273 343.397 316.756 343.083C317.239 342.766 317.824 342.607 318.513 342.607C319.157 342.607 319.718 342.747 320.197 343.029C320.676 343.311 321.048 343.713 321.314 344.237C321.579 344.756 321.712 345.375 321.712 346.096V352H319.141V346.555C319.145 345.987 319 345.545 318.706 345.227C318.412 344.905 318.008 344.744 317.492 344.744C317.146 344.744 316.84 344.818 316.575 344.967C316.313 345.116 316.108 345.333 315.959 345.619C315.814 345.901 315.74 346.241 315.736 346.639ZM327.156 352.151C326.452 352.151 325.814 351.97 325.242 351.608C324.675 351.241 324.224 350.704 323.89 349.996C323.56 349.283 323.395 348.41 323.395 347.376C323.395 346.313 323.566 345.43 323.908 344.725C324.25 344.017 324.705 343.488 325.273 343.138C325.844 342.784 326.47 342.607 327.15 342.607C327.669 342.607 328.102 342.695 328.448 342.872C328.798 343.045 329.08 343.263 329.293 343.524C329.51 343.782 329.675 344.035 329.788 344.285H329.867V339.636H332.432V352H329.897V350.515H329.788C329.667 350.772 329.496 351.028 329.275 351.282C329.058 351.531 328.774 351.738 328.424 351.903C328.078 352.068 327.655 352.151 327.156 352.151ZM327.971 350.104C328.386 350.104 328.736 349.992 329.021 349.766C329.311 349.537 329.533 349.217 329.686 348.806C329.843 348.396 329.921 347.915 329.921 347.364C329.921 346.812 329.845 346.333 329.692 345.927C329.539 345.52 329.317 345.206 329.028 344.985C328.738 344.764 328.386 344.653 327.971 344.653C327.548 344.653 327.192 344.768 326.903 344.997C326.613 345.227 326.393 345.545 326.244 345.951C326.096 346.357 326.021 346.828 326.021 347.364C326.021 347.903 326.096 348.38 326.244 348.794C326.397 349.205 326.617 349.527 326.903 349.76C327.192 349.99 327.548 350.104 327.971 350.104Z" fill="#286983"/>
<rect width="170" height="142" transform="translate(380 187)" fill="#286983"/>
<rect x="390" y="197" width="30" height="56" fill="#EBBCBA"/>
<rect x="430" y="197" width="30" height="56" fill="#EBBCBA"/>
<rect x="470" y="197" width="30" height="56" fill="#EBBCBA"/>
<rect x="510" y="197" width="30" height="56" fill="#EBBCBA"/>
<rect x="390" y="263" width="30" height="56" fill="#EBBCBA"/>
<rect x="430" y="263" width="30" height="56" fill="#EBBCBA"/>
<rect x="470" y="263" width="30" height="56" fill="#EBBCBA"/>
<rect x="510" y="263" width="30" height="56" fill="#EBBCBA"/>
<path d="M443.776 345.371L441.421 345.516C441.381 345.315 441.294 345.134 441.162 344.973C441.029 344.808 440.854 344.677 440.636 344.581C440.423 344.48 440.168 344.43 439.87 344.43C439.471 344.43 439.135 344.514 438.862 344.683C438.588 344.848 438.451 345.07 438.451 345.347C438.451 345.569 438.54 345.756 438.717 345.909C438.894 346.062 439.198 346.184 439.628 346.277L441.307 346.615C442.208 346.8 442.88 347.098 443.323 347.509C443.766 347.919 443.987 348.458 443.987 349.126C443.987 349.734 443.808 350.267 443.45 350.726C443.095 351.185 442.609 351.543 441.989 351.801C441.373 352.054 440.663 352.181 439.858 352.181C438.63 352.181 437.652 351.926 436.924 351.414C436.199 350.899 435.775 350.199 435.65 349.314L438.179 349.181C438.256 349.555 438.441 349.841 438.735 350.038C439.029 350.231 439.405 350.328 439.864 350.328C440.314 350.328 440.677 350.241 440.95 350.068C441.228 349.891 441.369 349.664 441.373 349.386C441.369 349.153 441.27 348.961 441.077 348.812C440.884 348.66 440.586 348.543 440.184 348.462L438.578 348.142C437.672 347.961 436.998 347.647 436.555 347.201C436.117 346.754 435.897 346.184 435.897 345.492C435.897 344.897 436.058 344.383 436.38 343.953C436.706 343.522 437.163 343.19 437.751 342.957C438.342 342.723 439.035 342.607 439.828 342.607C440.999 342.607 441.92 342.854 442.592 343.349C443.269 343.844 443.663 344.518 443.776 345.371ZM450.539 342.727V344.659H444.954V342.727H450.539ZM446.222 340.506H448.794V349.151C448.794 349.388 448.83 349.573 448.903 349.706C448.975 349.835 449.076 349.925 449.204 349.978C449.337 350.03 449.49 350.056 449.663 350.056C449.784 350.056 449.905 350.046 450.025 350.026C450.146 350.002 450.239 349.984 450.303 349.972L450.708 351.885C450.579 351.926 450.398 351.972 450.164 352.024C449.931 352.08 449.647 352.115 449.313 352.127C448.693 352.151 448.15 352.068 447.683 351.879C447.22 351.69 446.86 351.396 446.602 350.998C446.345 350.599 446.218 350.096 446.222 349.489V340.506ZM452.214 352V342.727H454.707V344.345H454.804C454.973 343.77 455.256 343.335 455.655 343.041C456.053 342.743 456.512 342.594 457.031 342.594C457.16 342.594 457.299 342.603 457.448 342.619C457.597 342.635 457.728 342.657 457.84 342.685V344.967C457.719 344.931 457.552 344.899 457.339 344.87C457.126 344.842 456.931 344.828 456.754 344.828C456.375 344.828 456.037 344.911 455.739 345.076C455.446 345.237 455.212 345.462 455.039 345.752C454.87 346.042 454.786 346.376 454.786 346.754V352H452.214ZM462.964 352.181C462.01 352.181 461.189 351.988 460.501 351.602C459.817 351.211 459.29 350.66 458.919 349.947C458.549 349.231 458.364 348.384 458.364 347.406C458.364 346.452 458.549 345.615 458.919 344.895C459.29 344.174 459.811 343.613 460.483 343.21C461.159 342.808 461.952 342.607 462.861 342.607C463.473 342.607 464.043 342.705 464.57 342.902C465.101 343.096 465.564 343.387 465.958 343.778C466.357 344.168 466.667 344.659 466.888 345.251C467.109 345.838 467.22 346.527 467.22 347.315V348.022H459.39V346.428H464.799C464.799 346.058 464.719 345.73 464.558 345.444C464.397 345.158 464.173 344.935 463.888 344.774C463.606 344.609 463.278 344.526 462.904 344.526C462.513 344.526 462.167 344.617 461.865 344.798C461.568 344.975 461.334 345.214 461.165 345.516C460.996 345.814 460.909 346.146 460.905 346.512V348.028C460.905 348.487 460.99 348.883 461.159 349.217C461.332 349.551 461.576 349.809 461.889 349.99C462.203 350.171 462.576 350.261 463.006 350.261C463.292 350.261 463.554 350.221 463.791 350.141C464.029 350.06 464.232 349.939 464.401 349.778C464.57 349.617 464.699 349.42 464.787 349.187L467.166 349.344C467.045 349.915 466.797 350.414 466.423 350.841C466.053 351.263 465.574 351.594 464.986 351.831C464.403 352.064 463.729 352.181 462.964 352.181ZM473.831 342.727V344.659H468.246V342.727H473.831ZM469.514 340.506H472.086V349.151C472.086 349.388 472.122 349.573 472.195 349.706C472.267 349.835 472.368 349.925 472.496 349.978C472.629 350.03 472.782 350.056 472.955 350.056C473.076 350.056 473.197 350.046 473.317 350.026C473.438 350.002 473.531 349.984 473.595 349.972L474 351.885C473.871 351.926 473.69 351.972 473.456 352.024C473.223 352.08 472.939 352.115 472.605 352.127C471.985 352.151 471.442 352.068 470.975 351.879C470.512 351.69 470.152 351.396 469.894 350.998C469.637 350.599 469.51 350.096 469.514 349.489V340.506ZM479.596 352.181C478.646 352.181 477.829 351.98 477.145 351.577C476.465 351.171 475.941 350.607 475.575 349.887C475.213 349.167 475.032 348.338 475.032 347.4C475.032 346.45 475.215 345.617 475.581 344.901C475.951 344.18 476.477 343.619 477.157 343.216C477.837 342.81 478.646 342.607 479.584 342.607C480.393 342.607 481.101 342.753 481.709 343.047C482.316 343.341 482.797 343.754 483.152 344.285C483.506 344.816 483.701 345.44 483.737 346.156H481.31C481.242 345.693 481.061 345.321 480.767 345.039C480.477 344.754 480.097 344.611 479.626 344.611C479.228 344.611 478.879 344.719 478.582 344.937C478.288 345.15 478.058 345.462 477.893 345.873C477.728 346.283 477.646 346.78 477.646 347.364C477.646 347.955 477.726 348.458 477.887 348.873C478.052 349.287 478.284 349.603 478.582 349.821C478.879 350.038 479.228 350.147 479.626 350.147C479.92 350.147 480.183 350.086 480.417 349.966C480.654 349.845 480.849 349.67 481.002 349.44C481.159 349.207 481.262 348.927 481.31 348.601H483.737C483.697 349.31 483.504 349.933 483.158 350.473C482.815 351.008 482.343 351.426 481.739 351.728C481.135 352.03 480.421 352.181 479.596 352.181ZM487.955 346.639V352H485.384V339.636H487.883V344.363H487.992C488.201 343.816 488.539 343.387 489.006 343.077C489.473 342.763 490.058 342.607 490.763 342.607C491.407 342.607 491.968 342.747 492.447 343.029C492.93 343.307 493.304 343.707 493.57 344.23C493.839 344.75 493.972 345.371 493.968 346.096V352H491.396V346.555C491.401 345.983 491.256 345.538 490.962 345.221C490.672 344.903 490.266 344.744 489.742 344.744C489.392 344.744 489.082 344.818 488.813 344.967C488.547 345.116 488.338 345.333 488.185 345.619C488.036 345.901 487.959 346.241 487.955 346.639Z" fill="#286983"/>
</g>
<defs>
<clipPath id="clip0_773_286">
<rect width="550" height="354" fill="white"/>
</clipPath>
</defs>
</svg>
