<svg width="552" height="318" viewBox="0 0 552 318" fill="none" xmlns="http://www.w3.org/2000/svg">
<rect width="552" height="64.4" fill="#56949F"/>
<rect x="10" y="9.19995" width="102" height="46" fill="#31748F"/>
<rect x="122" y="9.19995" width="46" height="46" fill="#31748F"/>
<rect x="178" y="9.19995" width="180" height="46" fill="#31748F"/>
<rect width="552" height="64.4" transform="translate(0 84.4)" fill="#56949F"/>
<rect x="10" y="93.6" width="102" height="46" fill="#31748F"/>
<rect x="122" y="93.6" width="46" height="46" fill="#31748F"/>
<rect x="178" y="93.6" width="364" height="46" fill="#31748F"/>
<path d="M317.121 113.727V115.659H311.398V113.727H317.121ZM312.708 123V113.057C312.708 112.385 312.839 111.828 313.101 111.385C313.366 110.942 313.728 110.61 314.187 110.389C314.646 110.167 315.167 110.057 315.751 110.057C316.145 110.057 316.505 110.087 316.831 110.147C317.161 110.208 317.407 110.262 317.568 110.31L317.109 112.242C317.008 112.21 316.884 112.18 316.735 112.152C316.59 112.123 316.441 112.109 316.288 112.109C315.91 112.109 315.646 112.198 315.497 112.375C315.348 112.548 315.274 112.792 315.274 113.105V123H312.708ZM321.264 110.636V123H318.692V110.636H321.264ZM327.55 123.181C326.596 123.181 325.775 122.988 325.087 122.602C324.403 122.211 323.876 121.66 323.505 120.947C323.135 120.231 322.95 119.384 322.95 118.406C322.95 117.452 323.135 116.615 323.505 115.895C323.876 115.174 324.397 114.613 325.069 114.21C325.745 113.808 326.538 113.607 327.447 113.607C328.059 113.607 328.629 113.705 329.156 113.902C329.687 114.096 330.15 114.387 330.544 114.778C330.943 115.168 331.253 115.659 331.474 116.251C331.695 116.838 331.806 117.527 331.806 118.315V119.022H323.976V117.428H329.385C329.385 117.058 329.305 116.73 329.144 116.444C328.983 116.158 328.759 115.935 328.474 115.774C328.192 115.609 327.864 115.526 327.49 115.526C327.099 115.526 326.753 115.617 326.451 115.798C326.153 115.975 325.92 116.214 325.751 116.516C325.582 116.814 325.495 117.146 325.491 117.512V119.028C325.491 119.487 325.576 119.883 325.745 120.217C325.918 120.551 326.161 120.809 326.475 120.99C326.789 121.171 327.162 121.261 327.592 121.261C327.878 121.261 328.14 121.221 328.377 121.141C328.614 121.06 328.818 120.939 328.987 120.778C329.156 120.617 329.285 120.42 329.373 120.187L331.752 120.344C331.631 120.915 331.383 121.414 331.009 121.841C330.639 122.263 330.16 122.594 329.572 122.831C328.989 123.064 328.315 123.181 327.55 123.181ZM335.467 113.727L337.17 116.969L338.915 113.727H341.553L338.866 118.364L341.625 123H338.999L337.17 119.794L335.371 123H332.715L335.467 118.364L332.811 113.727H335.467ZM348.475 116.903V118.943H342.837V116.903H348.475ZM354.844 126.67C354.011 126.67 353.297 126.556 352.701 126.326C352.11 126.101 351.639 125.793 351.289 125.403C350.939 125.012 350.711 124.574 350.607 124.087L352.985 123.767C353.058 123.952 353.172 124.125 353.329 124.286C353.486 124.447 353.693 124.576 353.951 124.672C354.213 124.773 354.531 124.823 354.905 124.823C355.464 124.823 355.925 124.686 356.287 124.413C356.654 124.143 356.837 123.69 356.837 123.054V121.358H356.728C356.615 121.616 356.446 121.859 356.221 122.088C355.996 122.318 355.706 122.505 355.352 122.65C354.997 122.795 354.575 122.867 354.084 122.867C353.388 122.867 352.754 122.706 352.182 122.384C351.615 122.058 351.162 121.561 350.824 120.893C350.49 120.221 350.323 119.372 350.323 118.346C350.323 117.295 350.494 116.418 350.836 115.713C351.178 115.009 351.633 114.482 352.2 114.132C352.772 113.782 353.398 113.607 354.078 113.607C354.597 113.607 355.032 113.695 355.382 113.872C355.732 114.045 356.014 114.263 356.227 114.524C356.444 114.782 356.611 115.035 356.728 115.285H356.825V113.727H359.378V123.091C359.378 123.879 359.185 124.539 358.799 125.071C358.412 125.602 357.877 126 357.193 126.266C356.513 126.536 355.73 126.67 354.844 126.67ZM354.899 120.935C355.313 120.935 355.663 120.833 355.949 120.627C356.239 120.418 356.46 120.12 356.613 119.734C356.77 119.344 356.849 118.877 356.849 118.333C356.849 117.79 356.772 117.319 356.619 116.921C356.466 116.518 356.245 116.206 355.955 115.985C355.665 115.764 355.313 115.653 354.899 115.653C354.476 115.653 354.12 115.768 353.83 115.997C353.54 116.223 353.321 116.536 353.172 116.939C353.023 117.341 352.949 117.806 352.949 118.333C352.949 118.869 353.023 119.332 353.172 119.722C353.325 120.108 353.545 120.408 353.83 120.621C354.12 120.831 354.476 120.935 354.899 120.935ZM361.425 123V113.727H363.918V115.345H364.015C364.184 114.77 364.467 114.335 364.866 114.041C365.264 113.743 365.723 113.594 366.242 113.594C366.371 113.594 366.51 113.603 366.659 113.619C366.808 113.635 366.938 113.657 367.051 113.685V115.967C366.93 115.931 366.763 115.899 366.55 115.87C366.337 115.842 366.142 115.828 365.964 115.828C365.586 115.828 365.248 115.911 364.95 116.076C364.656 116.237 364.423 116.462 364.25 116.752C364.081 117.042 363.996 117.376 363.996 117.754V123H361.425ZM372.139 123.181C371.201 123.181 370.39 122.982 369.706 122.583C369.026 122.181 368.501 121.622 368.13 120.905C367.76 120.185 367.575 119.35 367.575 118.4C367.575 117.442 367.76 116.605 368.13 115.888C368.501 115.168 369.026 114.609 369.706 114.21C370.39 113.808 371.201 113.607 372.139 113.607C373.076 113.607 373.885 113.808 374.566 114.21C375.25 114.609 375.777 115.168 376.147 115.888C376.518 116.605 376.703 117.442 376.703 118.4C376.703 119.35 376.518 120.185 376.147 120.905C375.777 121.622 375.25 122.181 374.566 122.583C373.885 122.982 373.076 123.181 372.139 123.181ZM372.151 121.189C372.577 121.189 372.934 121.068 373.219 120.827C373.505 120.581 373.72 120.247 373.865 119.825C374.014 119.402 374.089 118.921 374.089 118.382C374.089 117.842 374.014 117.362 373.865 116.939C373.72 116.516 373.505 116.182 373.219 115.937C372.934 115.691 372.577 115.569 372.151 115.569C371.72 115.569 371.358 115.691 371.064 115.937C370.774 116.182 370.555 116.516 370.406 116.939C370.261 117.362 370.189 117.842 370.189 118.382C370.189 118.921 370.261 119.402 370.406 119.825C370.555 120.247 370.774 120.581 371.064 120.827C371.358 121.068 371.72 121.189 372.151 121.189ZM379.972 123L377.448 113.727H380.05L381.487 119.957H381.571L383.069 113.727H385.622L387.144 119.921H387.222L388.635 113.727H391.231L388.713 123H385.991L384.397 117.168H384.282L382.688 123H379.972ZM394.106 123.157C393.707 123.157 393.365 123.016 393.079 122.734C392.798 122.449 392.657 122.107 392.657 121.708C392.657 121.314 392.798 120.976 393.079 120.694C393.365 120.412 393.707 120.271 394.106 120.271C394.492 120.271 394.83 120.412 395.12 120.694C395.41 120.976 395.555 121.314 395.555 121.708C395.555 121.974 395.486 122.217 395.349 122.439C395.216 122.656 395.041 122.831 394.824 122.964C394.607 123.093 394.367 123.157 394.106 123.157ZM394.106 116.661C393.707 116.661 393.365 116.52 393.079 116.239C392.798 115.957 392.657 115.615 392.657 115.212C392.657 114.818 392.798 114.482 393.079 114.204C393.365 113.922 393.707 113.782 394.106 113.782C394.492 113.782 394.83 113.922 395.12 114.204C395.41 114.482 395.555 114.818 395.555 115.212C395.555 115.482 395.486 115.728 395.349 115.949C395.216 116.166 395.041 116.339 394.824 116.468C394.607 116.597 394.367 116.661 394.106 116.661ZM406.955 110.636V123H404.341V113.118H404.269L401.438 114.892V112.574L404.498 110.636H406.955Z" fill="#F2E9E1"/>
<path d="M144.998 123.272C143.959 123.268 143.066 123.012 142.317 122.505C141.573 121.998 140.999 121.263 140.597 120.301C140.198 119.34 140.001 118.183 140.005 116.83C140.005 115.482 140.204 114.333 140.603 113.383C141.005 112.433 141.579 111.711 142.323 111.216C143.072 110.717 143.963 110.467 144.998 110.467C146.032 110.467 146.922 110.717 147.666 111.216C148.415 111.715 148.99 112.439 149.393 113.389C149.795 114.335 149.994 115.482 149.99 116.83C149.99 118.187 149.789 119.346 149.387 120.308C148.988 121.269 148.417 122.004 147.672 122.511C146.928 123.018 146.036 123.272 144.998 123.272ZM144.998 121.104C145.706 121.104 146.272 120.748 146.694 120.036C147.117 119.324 147.326 118.255 147.322 116.83C147.322 115.893 147.225 115.112 147.032 114.488C146.843 113.864 146.573 113.395 146.223 113.081C145.877 112.767 145.469 112.61 144.998 112.61C144.293 112.61 143.73 112.963 143.307 113.667C142.885 114.371 142.672 115.426 142.667 116.83C142.667 117.78 142.762 118.573 142.951 119.209C143.144 119.841 143.416 120.316 143.766 120.634C144.116 120.947 144.527 121.104 144.998 121.104Z" fill="#F2E9E1"/>
<path d="M60.9977 123.272C59.9594 123.268 59.0659 123.012 58.3173 122.505C57.5728 121.998 56.9993 121.263 56.5968 120.301C56.1984 119.34 56.0012 118.183 56.0052 116.83C56.0052 115.482 56.2044 114.333 56.6028 113.383C57.0053 112.433 57.5788 111.711 58.3234 111.216C59.072 110.717 59.9634 110.467 60.9977 110.467C62.0321 110.467 62.9215 110.717 63.6661 111.216C64.4146 111.715 64.9902 112.439 65.3926 113.389C65.7951 114.335 65.9943 115.482 65.9903 116.83C65.9903 118.187 65.789 119.346 65.3866 120.308C64.9881 121.269 64.4167 122.004 63.6721 122.511C62.9275 123.018 62.0361 123.272 60.9977 123.272ZM60.9977 121.104C61.7061 121.104 62.2715 120.748 62.6941 120.036C63.1167 119.324 63.326 118.255 63.322 116.83C63.322 115.893 63.2254 115.112 63.0322 114.488C62.843 113.864 62.5734 113.395 62.2232 113.081C61.8771 112.767 61.4686 112.61 60.9977 112.61C60.2934 112.61 59.73 112.963 59.3074 113.667C58.8848 114.371 58.6715 115.426 58.6675 116.83C58.6675 117.78 58.7621 118.573 58.9512 119.209C59.1444 119.841 59.4161 120.316 59.7662 120.634C60.1163 120.947 60.5269 121.104 60.9977 121.104Z" fill="#F2E9E1"/>
<rect width="552" height="64.4" transform="translate(0 168.8)" fill="#56949F"/>
<rect x="10" y="178" width="102" height="46" fill="#31748F"/>
<rect x="122" y="178" width="205" height="46" fill="#31748F"/>
<rect x="337" y="178" width="205" height="46" fill="#31748F"/>
<path d="M397.121 198.727V200.659H391.398V198.727H397.121ZM392.708 208V198.057C392.708 197.385 392.839 196.828 393.101 196.385C393.366 195.942 393.728 195.61 394.187 195.389C394.646 195.167 395.167 195.057 395.751 195.057C396.145 195.057 396.505 195.087 396.831 195.147C397.161 195.208 397.407 195.262 397.568 195.31L397.109 197.242C397.008 197.21 396.884 197.18 396.735 197.152C396.59 197.123 396.441 197.109 396.288 197.109C395.91 197.109 395.646 197.198 395.497 197.375C395.348 197.548 395.274 197.792 395.274 198.105V208H392.708ZM401.264 195.636V208H398.692V195.636H401.264ZM407.55 208.181C406.596 208.181 405.775 207.988 405.087 207.602C404.403 207.211 403.876 206.66 403.505 205.947C403.135 205.231 402.95 204.384 402.95 203.406C402.95 202.452 403.135 201.615 403.505 200.895C403.876 200.174 404.397 199.613 405.069 199.21C405.745 198.808 406.538 198.607 407.447 198.607C408.059 198.607 408.629 198.705 409.156 198.902C409.687 199.096 410.15 199.387 410.544 199.778C410.943 200.168 411.253 200.659 411.474 201.251C411.695 201.838 411.806 202.527 411.806 203.315V204.022H403.976V202.428H409.385C409.385 202.058 409.305 201.73 409.144 201.444C408.983 201.158 408.759 200.935 408.474 200.774C408.192 200.609 407.864 200.526 407.49 200.526C407.099 200.526 406.753 200.617 406.451 200.798C406.153 200.975 405.92 201.214 405.751 201.516C405.582 201.814 405.495 202.146 405.491 202.512V204.028C405.491 204.487 405.576 204.883 405.745 205.217C405.918 205.551 406.161 205.809 406.475 205.99C406.789 206.171 407.162 206.261 407.592 206.261C407.878 206.261 408.14 206.221 408.377 206.141C408.614 206.06 408.818 205.939 408.987 205.778C409.156 205.617 409.285 205.42 409.373 205.187L411.752 205.344C411.631 205.915 411.383 206.414 411.009 206.841C410.639 207.263 410.16 207.594 409.572 207.831C408.989 208.064 408.315 208.181 407.55 208.181ZM415.467 198.727L417.17 201.969L418.915 198.727H421.553L418.866 203.364L421.625 208H418.999L417.17 204.794L415.371 208H412.715L415.467 203.364L412.811 198.727H415.467ZM428.475 201.903V203.943H422.837V201.903H428.475ZM434.844 211.67C434.011 211.67 433.297 211.556 432.701 211.326C432.11 211.101 431.639 210.793 431.289 210.403C430.939 210.012 430.711 209.574 430.607 209.087L432.985 208.767C433.058 208.952 433.172 209.125 433.329 209.286C433.486 209.447 433.693 209.576 433.951 209.672C434.213 209.773 434.531 209.823 434.905 209.823C435.464 209.823 435.925 209.686 436.287 209.413C436.654 209.143 436.837 208.69 436.837 208.054V206.358H436.728C436.615 206.616 436.446 206.859 436.221 207.088C435.996 207.318 435.706 207.505 435.352 207.65C434.997 207.795 434.575 207.867 434.084 207.867C433.388 207.867 432.754 207.706 432.182 207.384C431.615 207.058 431.162 206.561 430.824 205.893C430.49 205.221 430.323 204.372 430.323 203.346C430.323 202.295 430.494 201.418 430.836 200.713C431.178 200.009 431.633 199.482 432.2 199.132C432.772 198.782 433.398 198.607 434.078 198.607C434.597 198.607 435.032 198.695 435.382 198.872C435.732 199.045 436.014 199.263 436.227 199.524C436.444 199.782 436.611 200.035 436.728 200.285H436.825V198.727H439.378V208.091C439.378 208.879 439.185 209.539 438.799 210.071C438.412 210.602 437.877 211 437.193 211.266C436.513 211.536 435.73 211.67 434.844 211.67ZM434.899 205.935C435.313 205.935 435.663 205.833 435.949 205.627C436.239 205.418 436.46 205.12 436.613 204.734C436.77 204.344 436.849 203.877 436.849 203.333C436.849 202.79 436.772 202.319 436.619 201.921C436.466 201.518 436.245 201.206 435.955 200.985C435.665 200.764 435.313 200.653 434.899 200.653C434.476 200.653 434.12 200.768 433.83 200.997C433.54 201.223 433.321 201.536 433.172 201.939C433.023 202.341 432.949 202.806 432.949 203.333C432.949 203.869 433.023 204.332 433.172 204.722C433.325 205.108 433.545 205.408 433.83 205.621C434.12 205.831 434.476 205.935 434.899 205.935ZM441.425 208V198.727H443.918V200.345H444.015C444.184 199.77 444.467 199.335 444.866 199.041C445.264 198.743 445.723 198.594 446.242 198.594C446.371 198.594 446.51 198.603 446.659 198.619C446.808 198.635 446.938 198.657 447.051 198.685V200.967C446.93 200.931 446.763 200.899 446.55 200.87C446.337 200.842 446.142 200.828 445.964 200.828C445.586 200.828 445.248 200.911 444.95 201.076C444.656 201.237 444.423 201.462 444.25 201.752C444.081 202.042 443.996 202.376 443.996 202.754V208H441.425ZM452.139 208.181C451.201 208.181 450.39 207.982 449.706 207.583C449.026 207.181 448.501 206.622 448.13 205.905C447.76 205.185 447.575 204.35 447.575 203.4C447.575 202.442 447.76 201.605 448.13 200.888C448.501 200.168 449.026 199.609 449.706 199.21C450.39 198.808 451.201 198.607 452.139 198.607C453.076 198.607 453.885 198.808 454.566 199.21C455.25 199.609 455.777 200.168 456.147 200.888C456.518 201.605 456.703 202.442 456.703 203.4C456.703 204.35 456.518 205.185 456.147 205.905C455.777 206.622 455.25 207.181 454.566 207.583C453.885 207.982 453.076 208.181 452.139 208.181ZM452.151 206.189C452.577 206.189 452.934 206.068 453.219 205.827C453.505 205.581 453.72 205.247 453.865 204.825C454.014 204.402 454.089 203.921 454.089 203.382C454.089 202.842 454.014 202.362 453.865 201.939C453.72 201.516 453.505 201.182 453.219 200.937C452.934 200.691 452.577 200.569 452.151 200.569C451.72 200.569 451.358 200.691 451.064 200.937C450.774 201.182 450.555 201.516 450.406 201.939C450.261 202.362 450.189 202.842 450.189 203.382C450.189 203.921 450.261 204.402 450.406 204.825C450.555 205.247 450.774 205.581 451.064 205.827C451.358 206.068 451.72 206.189 452.151 206.189ZM459.972 208L457.448 198.727H460.05L461.487 204.957H461.571L463.069 198.727H465.622L467.144 204.921H467.222L468.635 198.727H471.231L468.713 208H465.991L464.397 202.168H464.282L462.688 208H459.972ZM474.106 208.157C473.707 208.157 473.365 208.016 473.079 207.734C472.798 207.449 472.657 207.107 472.657 206.708C472.657 206.314 472.798 205.976 473.079 205.694C473.365 205.412 473.707 205.271 474.106 205.271C474.492 205.271 474.83 205.412 475.12 205.694C475.41 205.976 475.555 206.314 475.555 206.708C475.555 206.974 475.486 207.217 475.349 207.439C475.216 207.656 475.041 207.831 474.824 207.964C474.607 208.093 474.367 208.157 474.106 208.157ZM474.106 201.661C473.707 201.661 473.365 201.52 473.079 201.239C472.798 200.957 472.657 200.615 472.657 200.212C472.657 199.818 472.798 199.482 473.079 199.204C473.365 198.922 473.707 198.782 474.106 198.782C474.492 198.782 474.83 198.922 475.12 199.204C475.41 199.482 475.555 199.818 475.555 200.212C475.555 200.482 475.486 200.728 475.349 200.949C475.216 201.166 475.041 201.339 474.824 201.468C474.607 201.597 474.367 201.661 474.106 201.661ZM486.955 195.636V208H484.341V198.118H484.269L481.438 199.892V197.574L484.498 195.636H486.955Z" fill="#F2E9E1"/>
<path d="M182.121 198.727V200.659H176.398V198.727H182.121ZM177.708 208V198.057C177.708 197.385 177.839 196.828 178.101 196.385C178.366 195.942 178.728 195.61 179.187 195.389C179.646 195.167 180.167 195.057 180.751 195.057C181.145 195.057 181.505 195.087 181.831 195.147C182.161 195.208 182.407 195.262 182.568 195.31L182.109 197.242C182.008 197.21 181.884 197.18 181.735 197.152C181.59 197.123 181.441 197.109 181.288 197.109C180.91 197.109 180.646 197.198 180.497 197.375C180.348 197.548 180.274 197.792 180.274 198.105V208H177.708ZM186.264 195.636V208H183.692V195.636H186.264ZM192.55 208.181C191.596 208.181 190.775 207.988 190.087 207.602C189.403 207.211 188.876 206.66 188.505 205.947C188.135 205.231 187.95 204.384 187.95 203.406C187.95 202.452 188.135 201.615 188.505 200.895C188.876 200.174 189.397 199.613 190.069 199.21C190.745 198.808 191.538 198.607 192.447 198.607C193.059 198.607 193.629 198.705 194.156 198.902C194.687 199.096 195.15 199.387 195.544 199.778C195.943 200.168 196.253 200.659 196.474 201.251C196.695 201.838 196.806 202.527 196.806 203.315V204.022H188.976V202.428H194.385C194.385 202.058 194.305 201.73 194.144 201.444C193.983 201.158 193.759 200.935 193.474 200.774C193.192 200.609 192.864 200.526 192.49 200.526C192.099 200.526 191.753 200.617 191.451 200.798C191.153 200.975 190.92 201.214 190.751 201.516C190.582 201.814 190.495 202.146 190.491 202.512V204.028C190.491 204.487 190.576 204.883 190.745 205.217C190.918 205.551 191.161 205.809 191.475 205.99C191.789 206.171 192.162 206.261 192.592 206.261C192.878 206.261 193.14 206.221 193.377 206.141C193.614 206.06 193.818 205.939 193.987 205.778C194.156 205.617 194.285 205.42 194.373 205.187L196.752 205.344C196.631 205.915 196.383 206.414 196.009 206.841C195.639 207.263 195.16 207.594 194.572 207.831C193.989 208.064 193.315 208.181 192.55 208.181ZM200.467 198.727L202.17 201.969L203.915 198.727H206.553L203.866 203.364L206.625 208H203.999L202.17 204.794L200.371 208H197.715L200.467 203.364L197.811 198.727H200.467ZM213.475 201.903V203.943H207.837V201.903H213.475ZM219.844 211.67C219.011 211.67 218.297 211.556 217.701 211.326C217.11 211.101 216.639 210.793 216.289 210.403C215.939 210.012 215.711 209.574 215.607 209.087L217.985 208.767C218.058 208.952 218.172 209.125 218.329 209.286C218.486 209.447 218.693 209.576 218.951 209.672C219.213 209.773 219.531 209.823 219.905 209.823C220.464 209.823 220.925 209.686 221.287 209.413C221.654 209.143 221.837 208.69 221.837 208.054V206.358H221.728C221.615 206.616 221.446 206.859 221.221 207.088C220.996 207.318 220.706 207.505 220.352 207.65C219.997 207.795 219.575 207.867 219.084 207.867C218.388 207.867 217.754 207.706 217.182 207.384C216.615 207.058 216.162 206.561 215.824 205.893C215.49 205.221 215.323 204.372 215.323 203.346C215.323 202.295 215.494 201.418 215.836 200.713C216.178 200.009 216.633 199.482 217.2 199.132C217.772 198.782 218.398 198.607 219.078 198.607C219.597 198.607 220.032 198.695 220.382 198.872C220.732 199.045 221.014 199.263 221.227 199.524C221.444 199.782 221.611 200.035 221.728 200.285H221.825V198.727H224.378V208.091C224.378 208.879 224.185 209.539 223.799 210.071C223.412 210.602 222.877 211 222.193 211.266C221.513 211.536 220.73 211.67 219.844 211.67ZM219.899 205.935C220.313 205.935 220.663 205.833 220.949 205.627C221.239 205.418 221.46 205.12 221.613 204.734C221.77 204.344 221.849 203.877 221.849 203.333C221.849 202.79 221.772 202.319 221.619 201.921C221.466 201.518 221.245 201.206 220.955 200.985C220.665 200.764 220.313 200.653 219.899 200.653C219.476 200.653 219.12 200.768 218.83 200.997C218.54 201.223 218.321 201.536 218.172 201.939C218.023 202.341 217.949 202.806 217.949 203.333C217.949 203.869 218.023 204.332 218.172 204.722C218.325 205.108 218.545 205.408 218.83 205.621C219.12 205.831 219.476 205.935 219.899 205.935ZM226.425 208V198.727H228.918V200.345H229.015C229.184 199.77 229.467 199.335 229.866 199.041C230.264 198.743 230.723 198.594 231.242 198.594C231.371 198.594 231.51 198.603 231.659 198.619C231.808 198.635 231.938 198.657 232.051 198.685V200.967C231.93 200.931 231.763 200.899 231.55 200.87C231.337 200.842 231.142 200.828 230.964 200.828C230.586 200.828 230.248 200.911 229.95 201.076C229.656 201.237 229.423 201.462 229.25 201.752C229.081 202.042 228.996 202.376 228.996 202.754V208H226.425ZM237.139 208.181C236.201 208.181 235.39 207.982 234.706 207.583C234.026 207.181 233.501 206.622 233.13 205.905C232.76 205.185 232.575 204.35 232.575 203.4C232.575 202.442 232.76 201.605 233.13 200.888C233.501 200.168 234.026 199.609 234.706 199.21C235.39 198.808 236.201 198.607 237.139 198.607C238.076 198.607 238.885 198.808 239.566 199.21C240.25 199.609 240.777 200.168 241.147 200.888C241.518 201.605 241.703 202.442 241.703 203.4C241.703 204.35 241.518 205.185 241.147 205.905C240.777 206.622 240.25 207.181 239.566 207.583C238.885 207.982 238.076 208.181 237.139 208.181ZM237.151 206.189C237.577 206.189 237.934 206.068 238.219 205.827C238.505 205.581 238.72 205.247 238.865 204.825C239.014 204.402 239.089 203.921 239.089 203.382C239.089 202.842 239.014 202.362 238.865 201.939C238.72 201.516 238.505 201.182 238.219 200.937C237.934 200.691 237.577 200.569 237.151 200.569C236.72 200.569 236.358 200.691 236.064 200.937C235.774 201.182 235.555 201.516 235.406 201.939C235.261 202.362 235.189 202.842 235.189 203.382C235.189 203.921 235.261 204.402 235.406 204.825C235.555 205.247 235.774 205.581 236.064 205.827C236.358 206.068 236.72 206.189 237.151 206.189ZM244.972 208L242.448 198.727H245.05L246.487 204.957H246.571L248.069 198.727H250.622L252.144 204.921H252.222L253.635 198.727H256.231L253.713 208H250.991L249.397 202.168H249.282L247.688 208H244.972ZM259.106 208.157C258.707 208.157 258.365 208.016 258.079 207.734C257.798 207.449 257.657 207.107 257.657 206.708C257.657 206.314 257.798 205.976 258.079 205.694C258.365 205.412 258.707 205.271 259.106 205.271C259.492 205.271 259.83 205.412 260.12 205.694C260.41 205.976 260.555 206.314 260.555 206.708C260.555 206.974 260.486 207.217 260.349 207.439C260.216 207.656 260.041 207.831 259.824 207.964C259.607 208.093 259.367 208.157 259.106 208.157ZM259.106 201.661C258.707 201.661 258.365 201.52 258.079 201.239C257.798 200.957 257.657 200.615 257.657 200.212C257.657 199.818 257.798 199.482 258.079 199.204C258.365 198.922 258.707 198.782 259.106 198.782C259.492 198.782 259.83 198.922 260.12 199.204C260.41 199.482 260.555 199.818 260.555 200.212C260.555 200.482 260.486 200.728 260.349 200.949C260.216 201.166 260.041 201.339 259.824 201.468C259.607 201.597 259.367 201.661 259.106 201.661ZM271.955 195.636V208H269.341V198.118H269.269L266.438 199.892V197.574L269.498 195.636H271.955Z" fill="#F2E9E1"/>
<path d="M60.9977 208.272C59.9594 208.268 59.0659 208.012 58.3173 207.505C57.5728 206.998 56.9993 206.263 56.5968 205.301C56.1984 204.34 56.0012 203.183 56.0052 201.83C56.0052 200.482 56.2044 199.333 56.6028 198.383C57.0053 197.433 57.5788 196.711 58.3234 196.216C59.072 195.717 59.9634 195.467 60.9977 195.467C62.0321 195.467 62.9215 195.717 63.6661 196.216C64.4146 196.715 64.9902 197.439 65.3926 198.389C65.7951 199.335 65.9943 200.482 65.9903 201.83C65.9903 203.187 65.789 204.346 65.3866 205.308C64.9881 206.269 64.4167 207.004 63.6721 207.511C62.9275 208.018 62.0361 208.272 60.9977 208.272ZM60.9977 206.104C61.7061 206.104 62.2715 205.748 62.6941 205.036C63.1167 204.324 63.326 203.255 63.322 201.83C63.322 200.893 63.2254 200.112 63.0322 199.488C62.843 198.864 62.5734 198.395 62.2232 198.081C61.8771 197.767 61.4686 197.61 60.9977 197.61C60.2934 197.61 59.73 197.963 59.3074 198.667C58.8848 199.371 58.6715 200.426 58.6675 201.83C58.6675 202.78 58.7621 203.573 58.9512 204.209C59.1444 204.841 59.4161 205.316 59.7662 205.634C60.1163 205.947 60.5269 206.104 60.9977 206.104Z" fill="#F2E9E1"/>
<rect width="552" height="64.4" transform="translate(0 253.2)" fill="#56949F"/>
<rect x="10" y="262.4" width="102" height="46" fill="#31748F"/>
<rect x="122" y="262.4" width="136.667" height="46" fill="#31748F"/>
<rect x="268.667" y="262.4" width="273.333" height="46" fill="#31748F"/>
<path d="M361.426 282.727V284.659H355.703V282.727H361.426ZM357.013 292V282.057C357.013 281.385 357.144 280.828 357.405 280.385C357.671 279.942 358.033 279.61 358.492 279.389C358.951 279.167 359.472 279.057 360.055 279.057C360.45 279.057 360.81 279.087 361.136 279.147C361.466 279.208 361.712 279.262 361.873 279.31L361.414 281.242C361.313 281.21 361.188 281.18 361.04 281.152C360.895 281.123 360.746 281.109 360.593 281.109C360.214 281.109 359.951 281.198 359.802 281.375C359.653 281.548 359.579 281.792 359.579 282.105V292H357.013ZM365.569 279.636V292H362.997V279.636H365.569ZM371.855 292.181C370.901 292.181 370.08 291.988 369.392 291.602C368.707 291.211 368.18 290.66 367.81 289.947C367.44 289.231 367.255 288.384 367.255 287.406C367.255 286.452 367.44 285.615 367.81 284.895C368.18 284.174 368.701 283.613 369.373 283.21C370.05 282.808 370.842 282.607 371.752 282.607C372.364 282.607 372.933 282.705 373.46 282.902C373.992 283.096 374.455 283.387 374.849 283.778C375.247 284.168 375.557 284.659 375.779 285.251C376 285.838 376.111 286.527 376.111 287.315V288.022H368.281V286.428H373.69C373.69 286.058 373.609 285.73 373.448 285.444C373.287 285.158 373.064 284.935 372.778 284.774C372.497 284.609 372.169 284.526 371.794 284.526C371.404 284.526 371.058 284.617 370.756 284.798C370.458 284.975 370.225 285.214 370.056 285.516C369.887 285.814 369.8 286.146 369.796 286.512V288.028C369.796 288.487 369.881 288.883 370.05 289.217C370.223 289.551 370.466 289.809 370.78 289.99C371.094 290.171 371.466 290.261 371.897 290.261C372.183 290.261 372.444 290.221 372.682 290.141C372.919 290.06 373.122 289.939 373.291 289.778C373.46 289.617 373.589 289.42 373.678 289.187L376.056 289.344C375.936 289.915 375.688 290.414 375.314 290.841C374.944 291.263 374.465 291.594 373.877 291.831C373.293 292.064 372.619 292.181 371.855 292.181ZM379.772 282.727L381.475 285.969L383.219 282.727H385.857L383.171 287.364L385.93 292H383.304L381.475 288.794L379.676 292H377.019L379.772 287.364L377.116 282.727H379.772ZM392.78 285.903V287.943H387.142V285.903H392.78ZM399.149 295.67C398.316 295.67 397.602 295.556 397.006 295.326C396.414 295.101 395.944 294.793 395.593 294.403C395.243 294.012 395.016 293.574 394.911 293.087L397.29 292.767C397.362 292.952 397.477 293.125 397.634 293.286C397.791 293.447 397.998 293.576 398.256 293.672C398.517 293.773 398.835 293.823 399.21 293.823C399.769 293.823 400.23 293.686 400.592 293.413C400.958 293.143 401.141 292.69 401.141 292.054V290.358H401.033C400.92 290.616 400.751 290.859 400.526 291.088C400.3 291.318 400.01 291.505 399.656 291.65C399.302 291.795 398.879 291.867 398.388 291.867C397.692 291.867 397.058 291.706 396.487 291.384C395.919 291.058 395.467 290.561 395.129 289.893C394.795 289.221 394.627 288.372 394.627 287.346C394.627 286.295 394.799 285.418 395.141 284.713C395.483 284.009 395.938 283.482 396.505 283.132C397.076 282.782 397.702 282.607 398.382 282.607C398.902 282.607 399.336 282.695 399.686 282.872C400.037 283.045 400.318 283.263 400.532 283.524C400.749 283.782 400.916 284.035 401.033 284.285H401.129V282.727H403.683V292.091C403.683 292.879 403.49 293.539 403.103 294.071C402.717 294.602 402.182 295 401.498 295.266C400.817 295.536 400.035 295.67 399.149 295.67ZM399.203 289.935C399.618 289.935 399.968 289.833 400.254 289.627C400.544 289.418 400.765 289.12 400.918 288.734C401.075 288.344 401.153 287.877 401.153 287.333C401.153 286.79 401.077 286.319 400.924 285.921C400.771 285.518 400.55 285.206 400.26 284.985C399.97 284.764 399.618 284.653 399.203 284.653C398.781 284.653 398.425 284.768 398.135 284.997C397.845 285.223 397.626 285.536 397.477 285.939C397.328 286.341 397.254 286.806 397.254 287.333C397.254 287.869 397.328 288.332 397.477 288.722C397.63 289.108 397.849 289.408 398.135 289.621C398.425 289.831 398.781 289.935 399.203 289.935ZM405.729 292V282.727H408.223V284.345H408.319C408.488 283.77 408.772 283.335 409.17 283.041C409.569 282.743 410.028 282.594 410.547 282.594C410.676 282.594 410.815 282.603 410.963 282.619C411.112 282.635 411.243 282.657 411.356 282.685V284.967C411.235 284.931 411.068 284.899 410.855 284.87C410.641 284.842 410.446 284.828 410.269 284.828C409.891 284.828 409.553 284.911 409.255 285.076C408.961 285.237 408.728 285.462 408.555 285.752C408.386 286.042 408.301 286.376 408.301 286.754V292H405.729ZM416.443 292.181C415.506 292.181 414.695 291.982 414.011 291.583C413.33 291.181 412.805 290.622 412.435 289.905C412.065 289.185 411.88 288.35 411.88 287.4C411.88 286.442 412.065 285.605 412.435 284.888C412.805 284.168 413.33 283.609 414.011 283.21C414.695 282.808 415.506 282.607 416.443 282.607C417.381 282.607 418.19 282.808 418.87 283.21C419.554 283.609 420.082 284.168 420.452 284.888C420.822 285.605 421.007 286.442 421.007 287.4C421.007 288.35 420.822 289.185 420.452 289.905C420.082 290.622 419.554 291.181 418.87 291.583C418.19 291.982 417.381 292.181 416.443 292.181ZM416.456 290.189C416.882 290.189 417.238 290.068 417.524 289.827C417.81 289.581 418.025 289.247 418.17 288.825C418.319 288.402 418.393 287.921 418.393 287.382C418.393 286.842 418.319 286.362 418.17 285.939C418.025 285.516 417.81 285.182 417.524 284.937C417.238 284.691 416.882 284.569 416.456 284.569C416.025 284.569 415.663 284.691 415.369 284.937C415.079 285.182 414.86 285.516 414.711 285.939C414.566 286.362 414.494 286.842 414.494 287.382C414.494 287.921 414.566 288.402 414.711 288.825C414.86 289.247 415.079 289.581 415.369 289.827C415.663 290.068 416.025 290.189 416.456 290.189ZM424.276 292L421.753 282.727H424.355L425.792 288.957H425.876L427.373 282.727H429.927L431.448 288.921H431.527L432.939 282.727H435.535L433.018 292H430.295L428.701 286.168H428.587L426.993 292H424.276ZM438.41 292.157C438.012 292.157 437.67 292.016 437.384 291.734C437.102 291.449 436.961 291.107 436.961 290.708C436.961 290.314 437.102 289.976 437.384 289.694C437.67 289.412 438.012 289.271 438.41 289.271C438.797 289.271 439.135 289.412 439.425 289.694C439.714 289.976 439.859 290.314 439.859 290.708C439.859 290.974 439.791 291.217 439.654 291.439C439.521 291.656 439.346 291.831 439.129 291.964C438.911 292.093 438.672 292.157 438.41 292.157ZM438.41 285.661C438.012 285.661 437.67 285.52 437.384 285.239C437.102 284.957 436.961 284.615 436.961 284.212C436.961 283.818 437.102 283.482 437.384 283.204C437.67 282.922 438.012 282.782 438.41 282.782C438.797 282.782 439.135 282.922 439.425 283.204C439.714 283.482 439.859 283.818 439.859 284.212C439.859 284.482 439.791 284.728 439.654 284.949C439.521 285.166 439.346 285.339 439.129 285.468C438.911 285.597 438.672 285.661 438.41 285.661ZM445.881 292V290.116L450.282 286.042C450.656 285.679 450.97 285.353 451.224 285.064C451.481 284.774 451.676 284.49 451.809 284.212C451.942 283.931 452.009 283.627 452.009 283.301C452.009 282.939 451.926 282.627 451.761 282.365C451.596 282.099 451.371 281.896 451.085 281.755C450.799 281.61 450.475 281.538 450.113 281.538C449.735 281.538 449.405 281.614 449.123 281.767C448.841 281.92 448.624 282.14 448.471 282.425C448.318 282.711 448.241 283.051 448.241 283.446H445.76C445.76 282.637 445.943 281.934 446.31 281.339C446.676 280.743 447.189 280.282 447.849 279.956C448.509 279.63 449.27 279.467 450.131 279.467C451.016 279.467 451.787 279.624 452.443 279.938C453.103 280.248 453.616 280.679 453.983 281.23C454.349 281.781 454.532 282.413 454.532 283.126C454.532 283.593 454.439 284.053 454.254 284.508C454.073 284.963 453.749 285.468 453.282 286.023C452.815 286.575 452.157 287.237 451.308 288.01L449.503 289.778V289.863H454.695V292H445.881Z" fill="#F2E9E1"/>
<path d="M147.121 282.727V284.659H141.398V282.727H147.121ZM142.708 292V282.057C142.708 281.385 142.839 280.828 143.101 280.385C143.366 279.942 143.728 279.61 144.187 279.389C144.646 279.167 145.167 279.057 145.751 279.057C146.145 279.057 146.505 279.087 146.831 279.147C147.161 279.208 147.407 279.262 147.568 279.31L147.109 281.242C147.008 281.21 146.884 281.18 146.735 281.152C146.59 281.123 146.441 281.109 146.288 281.109C145.91 281.109 145.646 281.198 145.497 281.375C145.348 281.548 145.274 281.792 145.274 282.105V292H142.708ZM151.264 279.636V292H148.692V279.636H151.264ZM157.55 292.181C156.596 292.181 155.775 291.988 155.087 291.602C154.403 291.211 153.876 290.66 153.505 289.947C153.135 289.231 152.95 288.384 152.95 287.406C152.95 286.452 153.135 285.615 153.505 284.895C153.876 284.174 154.397 283.613 155.069 283.21C155.745 282.808 156.538 282.607 157.447 282.607C158.059 282.607 158.629 282.705 159.156 282.902C159.687 283.096 160.15 283.387 160.544 283.778C160.943 284.168 161.253 284.659 161.474 285.251C161.695 285.838 161.806 286.527 161.806 287.315V288.022H153.976V286.428H159.385C159.385 286.058 159.305 285.73 159.144 285.444C158.983 285.158 158.759 284.935 158.474 284.774C158.192 284.609 157.864 284.526 157.49 284.526C157.099 284.526 156.753 284.617 156.451 284.798C156.153 284.975 155.92 285.214 155.751 285.516C155.582 285.814 155.495 286.146 155.491 286.512V288.028C155.491 288.487 155.576 288.883 155.745 289.217C155.918 289.551 156.161 289.809 156.475 289.99C156.789 290.171 157.162 290.261 157.592 290.261C157.878 290.261 158.14 290.221 158.377 290.141C158.614 290.06 158.818 289.939 158.987 289.778C159.156 289.617 159.285 289.42 159.373 289.187L161.752 289.344C161.631 289.915 161.383 290.414 161.009 290.841C160.639 291.263 160.16 291.594 159.572 291.831C158.989 292.064 158.315 292.181 157.55 292.181ZM165.467 282.727L167.17 285.969L168.915 282.727H171.553L168.866 287.364L171.625 292H168.999L167.17 288.794L165.371 292H162.715L165.467 287.364L162.811 282.727H165.467ZM178.475 285.903V287.943H172.837V285.903H178.475ZM184.844 295.67C184.011 295.67 183.297 295.556 182.701 295.326C182.11 295.101 181.639 294.793 181.289 294.403C180.939 294.012 180.711 293.574 180.607 293.087L182.985 292.767C183.058 292.952 183.172 293.125 183.329 293.286C183.486 293.447 183.693 293.576 183.951 293.672C184.213 293.773 184.531 293.823 184.905 293.823C185.464 293.823 185.925 293.686 186.287 293.413C186.654 293.143 186.837 292.69 186.837 292.054V290.358H186.728C186.615 290.616 186.446 290.859 186.221 291.088C185.996 291.318 185.706 291.505 185.352 291.65C184.997 291.795 184.575 291.867 184.084 291.867C183.388 291.867 182.754 291.706 182.182 291.384C181.615 291.058 181.162 290.561 180.824 289.893C180.49 289.221 180.323 288.372 180.323 287.346C180.323 286.295 180.494 285.418 180.836 284.713C181.178 284.009 181.633 283.482 182.2 283.132C182.772 282.782 183.398 282.607 184.078 282.607C184.597 282.607 185.032 282.695 185.382 282.872C185.732 283.045 186.014 283.263 186.227 283.524C186.444 283.782 186.611 284.035 186.728 284.285H186.825V282.727H189.378V292.091C189.378 292.879 189.185 293.539 188.799 294.071C188.412 294.602 187.877 295 187.193 295.266C186.513 295.536 185.73 295.67 184.844 295.67ZM184.899 289.935C185.313 289.935 185.663 289.833 185.949 289.627C186.239 289.418 186.46 289.12 186.613 288.734C186.77 288.344 186.849 287.877 186.849 287.333C186.849 286.79 186.772 286.319 186.619 285.921C186.466 285.518 186.245 285.206 185.955 284.985C185.665 284.764 185.313 284.653 184.899 284.653C184.476 284.653 184.12 284.768 183.83 284.997C183.54 285.223 183.321 285.536 183.172 285.939C183.023 286.341 182.949 286.806 182.949 287.333C182.949 287.869 183.023 288.332 183.172 288.722C183.325 289.108 183.545 289.408 183.83 289.621C184.12 289.831 184.476 289.935 184.899 289.935ZM191.425 292V282.727H193.918V284.345H194.015C194.184 283.77 194.467 283.335 194.866 283.041C195.264 282.743 195.723 282.594 196.242 282.594C196.371 282.594 196.51 282.603 196.659 282.619C196.808 282.635 196.938 282.657 197.051 282.685V284.967C196.93 284.931 196.763 284.899 196.55 284.87C196.337 284.842 196.142 284.828 195.964 284.828C195.586 284.828 195.248 284.911 194.95 285.076C194.656 285.237 194.423 285.462 194.25 285.752C194.081 286.042 193.996 286.376 193.996 286.754V292H191.425ZM202.139 292.181C201.201 292.181 200.39 291.982 199.706 291.583C199.026 291.181 198.501 290.622 198.13 289.905C197.76 289.185 197.575 288.35 197.575 287.4C197.575 286.442 197.76 285.605 198.13 284.888C198.501 284.168 199.026 283.609 199.706 283.21C200.39 282.808 201.201 282.607 202.139 282.607C203.076 282.607 203.885 282.808 204.566 283.21C205.25 283.609 205.777 284.168 206.147 284.888C206.518 285.605 206.703 286.442 206.703 287.4C206.703 288.35 206.518 289.185 206.147 289.905C205.777 290.622 205.25 291.181 204.566 291.583C203.885 291.982 203.076 292.181 202.139 292.181ZM202.151 290.189C202.577 290.189 202.934 290.068 203.219 289.827C203.505 289.581 203.72 289.247 203.865 288.825C204.014 288.402 204.089 287.921 204.089 287.382C204.089 286.842 204.014 286.362 203.865 285.939C203.72 285.516 203.505 285.182 203.219 284.937C202.934 284.691 202.577 284.569 202.151 284.569C201.72 284.569 201.358 284.691 201.064 284.937C200.774 285.182 200.555 285.516 200.406 285.939C200.261 286.362 200.189 286.842 200.189 287.382C200.189 287.921 200.261 288.402 200.406 288.825C200.555 289.247 200.774 289.581 201.064 289.827C201.358 290.068 201.72 290.189 202.151 290.189ZM209.972 292L207.448 282.727H210.05L211.487 288.957H211.571L213.069 282.727H215.622L217.144 288.921H217.222L218.635 282.727H221.231L218.713 292H215.991L214.397 286.168H214.282L212.688 292H209.972ZM224.106 292.157C223.707 292.157 223.365 292.016 223.079 291.734C222.798 291.449 222.657 291.107 222.657 290.708C222.657 290.314 222.798 289.976 223.079 289.694C223.365 289.412 223.707 289.271 224.106 289.271C224.492 289.271 224.83 289.412 225.12 289.694C225.41 289.976 225.555 290.314 225.555 290.708C225.555 290.974 225.486 291.217 225.349 291.439C225.216 291.656 225.041 291.831 224.824 291.964C224.607 292.093 224.367 292.157 224.106 292.157ZM224.106 285.661C223.707 285.661 223.365 285.52 223.079 285.239C222.798 284.957 222.657 284.615 222.657 284.212C222.657 283.818 222.798 283.482 223.079 283.204C223.365 282.922 223.707 282.782 224.106 282.782C224.492 282.782 224.83 282.922 225.12 283.204C225.41 283.482 225.555 283.818 225.555 284.212C225.555 284.482 225.486 284.728 225.349 284.949C225.216 285.166 225.041 285.339 224.824 285.468C224.607 285.597 224.367 285.661 224.106 285.661ZM236.955 279.636V292H234.341V282.118H234.269L231.438 283.892V281.574L234.498 279.636H236.955Z" fill="#F2E9E1"/>
<path d="M60.9977 292.272C59.9594 292.268 59.0659 292.012 58.3173 291.505C57.5728 290.998 56.9993 290.263 56.5968 289.301C56.1984 288.34 56.0012 287.183 56.0052 285.83C56.0052 284.482 56.2044 283.333 56.6028 282.383C57.0053 281.433 57.5788 280.711 58.3234 280.216C59.072 279.717 59.9634 279.467 60.9977 279.467C62.0321 279.467 62.9215 279.717 63.6661 280.216C64.4146 280.715 64.9902 281.439 65.3926 282.389C65.7951 283.335 65.9943 284.482 65.9903 285.83C65.9903 287.187 65.789 288.346 65.3866 289.308C64.9881 290.269 64.4167 291.004 63.6721 291.511C62.9275 292.018 62.0361 292.272 60.9977 292.272ZM60.9977 290.104C61.7061 290.104 62.2715 289.748 62.6941 289.036C63.1167 288.324 63.326 287.255 63.322 285.83C63.322 284.893 63.2254 284.112 63.0322 283.488C62.843 282.864 62.5734 282.395 62.2232 282.081C61.8771 281.767 61.4686 281.61 60.9977 281.61C60.2934 281.61 59.73 281.963 59.3074 282.667C58.8848 283.371 58.6715 284.426 58.6675 285.83C58.6675 286.78 58.7621 287.573 58.9512 288.209C59.1444 288.841 59.4161 289.316 59.7662 289.634C60.1163 289.947 60.5269 290.104 60.9977 290.104Z" fill="#F2E9E1"/>
</svg>
