<svg width="552" height="402" viewBox="0 0 552 402" fill="none" xmlns="http://www.w3.org/2000/svg">
<g clip-path="url(#clip0_773_260)">
<rect width="552" height="64.4" fill="#56949F"/>
<rect x="10" y="9.20001" width="102" height="46" fill="#31748F"/>
<rect x="122" y="9.20001" width="46" height="46" fill="#31748F"/>
<rect x="178" y="9.20001" width="180" height="46" fill="#31748F"/>
<path d="M242.725 28.7273V30.6591H237.002V28.7273H242.725ZM238.312 38V28.0572C238.312 27.3851 238.443 26.8277 238.705 26.3849C238.97 25.9422 239.332 25.6102 239.791 25.3888C240.25 25.1675 240.771 25.0568 241.355 25.0568C241.749 25.0568 242.109 25.087 242.435 25.1474C242.765 25.2077 243.011 25.2621 243.172 25.3104L242.713 27.2422C242.612 27.21 242.488 27.1798 242.339 27.1516C242.194 27.1235 242.045 27.1094 241.892 27.1094C241.514 27.1094 241.25 27.1979 241.101 27.375C240.952 27.5481 240.878 27.7915 240.878 28.1055V38H238.312ZM246.868 25.6364V38H244.296V25.6364H246.868ZM253.154 38.1811C252.2 38.1811 251.379 37.9879 250.691 37.6016C250.007 37.2112 249.48 36.6598 249.109 35.9474C248.739 35.2311 248.554 34.3839 248.554 33.4059C248.554 32.4521 248.739 31.6149 249.109 30.8945C249.48 30.1741 250.001 29.6127 250.673 29.2102C251.349 28.8078 252.142 28.6065 253.051 28.6065C253.663 28.6065 254.233 28.7051 254.76 28.9023C255.291 29.0955 255.754 29.3873 256.148 29.7777C256.547 30.1681 256.857 30.6591 257.078 31.2507C257.299 31.8383 257.41 32.5265 257.41 33.3153V34.0217H249.58V32.4279H254.989C254.989 32.0576 254.909 31.7296 254.748 31.4439C254.587 31.1581 254.363 30.9348 254.078 30.7738C253.796 30.6088 253.468 30.5263 253.094 30.5263C252.703 30.5263 252.357 30.6168 252.055 30.7979C251.757 30.975 251.524 31.2145 251.355 31.5163C251.186 31.8142 251.099 32.1462 251.095 32.5124V34.0277C251.095 34.4865 251.18 34.8829 251.349 35.217C251.522 35.551 251.765 35.8086 252.079 35.9897C252.393 36.1708 252.766 36.2614 253.196 36.2614C253.482 36.2614 253.744 36.2211 253.981 36.1406C254.218 36.0601 254.422 35.9394 254.591 35.7784C254.76 35.6174 254.889 35.4202 254.977 35.1868L257.356 35.3438C257.235 35.9152 256.987 36.4143 256.613 36.8409C256.243 37.2635 255.764 37.5935 255.176 37.831C254.593 38.0644 253.919 38.1811 253.154 38.1811ZM261.071 28.7273L262.774 31.9691L264.519 28.7273H267.157L264.47 33.3636L267.229 38H264.603L262.774 34.7944L260.975 38H258.319L261.071 33.3636L258.415 28.7273H261.071ZM274.08 31.9027V33.9432H268.441V31.9027H274.08ZM283.986 31.3714L281.632 31.5163C281.591 31.3151 281.505 31.134 281.372 30.973C281.239 30.808 281.064 30.6772 280.847 30.5806C280.634 30.48 280.378 30.4297 280.08 30.4297C279.682 30.4297 279.346 30.5142 279.072 30.6832C278.798 30.8482 278.662 31.0696 278.662 31.3473C278.662 31.5687 278.75 31.7558 278.927 31.9087C279.104 32.0617 279.408 32.1844 279.839 32.277L281.517 32.6151C282.419 32.8002 283.091 33.098 283.533 33.5085C283.976 33.919 284.197 34.4583 284.197 35.1264C284.197 35.7341 284.018 36.2674 283.66 36.7262C283.306 37.185 282.819 37.5432 282.199 37.8008C281.583 38.0543 280.873 38.1811 280.068 38.1811C278.841 38.1811 277.863 37.9255 277.134 37.4144C276.41 36.8993 275.985 36.199 275.86 35.3136L278.39 35.1808C278.466 35.555 278.651 35.8408 278.945 36.038C279.239 36.2312 279.615 36.3278 280.074 36.3278C280.525 36.3278 280.887 36.2412 281.161 36.0682C281.439 35.8911 281.579 35.6637 281.583 35.386C281.579 35.1526 281.481 34.9614 281.288 34.8125C281.094 34.6596 280.797 34.5429 280.394 34.4624L278.788 34.1424C277.883 33.9613 277.209 33.6474 276.766 33.2006C276.327 32.7539 276.108 32.1844 276.108 31.4922C276.108 30.8965 276.269 30.3834 276.591 29.9528C276.917 29.5221 277.374 29.1901 277.961 28.9567C278.553 28.7232 279.245 28.6065 280.038 28.6065C281.209 28.6065 282.131 28.854 282.803 29.3491C283.479 29.8441 283.873 30.5182 283.986 31.3714ZM290.749 28.7273V30.6591H285.165V28.7273H290.749ZM286.433 26.5057H289.004V35.1506C289.004 35.388 289.041 35.5732 289.113 35.706C289.185 35.8348 289.286 35.9253 289.415 35.9776C289.548 36.0299 289.701 36.0561 289.874 36.0561C289.994 36.0561 290.115 36.046 290.236 36.0259C290.357 36.0018 290.449 35.9837 290.514 35.9716L290.918 37.8853C290.789 37.9255 290.608 37.9718 290.375 38.0241C290.141 38.0805 289.858 38.1147 289.523 38.1268C288.904 38.1509 288.36 38.0684 287.894 37.8793C287.431 37.6901 287.07 37.3963 286.813 36.9979C286.555 36.5994 286.429 36.0964 286.433 35.4886V26.5057ZM295.068 38.1751C294.477 38.1751 293.95 38.0724 293.487 37.8672C293.024 37.6579 292.658 37.35 292.388 36.9435C292.122 36.533 291.99 36.0219 291.99 35.4102C291.99 34.895 292.084 34.4624 292.273 34.1122C292.462 33.7621 292.72 33.4804 293.046 33.267C293.372 33.0537 293.742 32.8928 294.157 32.7841C294.575 32.6754 295.014 32.599 295.473 32.5547C296.012 32.4983 296.447 32.446 296.777 32.3977C297.107 32.3454 297.346 32.2689 297.495 32.1683C297.644 32.0677 297.719 31.9188 297.719 31.7216V31.6854C297.719 31.303 297.598 31.0072 297.356 30.7979C297.119 30.5887 296.781 30.484 296.342 30.484C295.879 30.484 295.511 30.5866 295.237 30.7919C294.964 30.9931 294.783 31.2467 294.694 31.5526L292.316 31.3594C292.436 30.7959 292.674 30.3089 293.028 29.8984C293.382 29.4839 293.839 29.166 294.398 28.9446C294.962 28.7192 295.614 28.6065 296.354 28.6065C296.869 28.6065 297.362 28.6669 297.833 28.7876C298.308 28.9084 298.729 29.0955 299.095 29.3491C299.465 29.6026 299.757 29.9286 299.97 30.3271C300.184 30.7215 300.29 31.1944 300.29 31.7457V38H297.851V36.7141H297.779C297.63 37.0039 297.431 37.2595 297.181 37.4808C296.932 37.6982 296.632 37.8692 296.282 37.994C295.932 38.1147 295.527 38.1751 295.068 38.1751ZM295.805 36.4002C296.183 36.4002 296.517 36.3258 296.807 36.1768C297.097 36.0239 297.324 35.8187 297.489 35.5611C297.654 35.3035 297.737 35.0117 297.737 34.6857V33.7017C297.656 33.754 297.546 33.8023 297.405 33.8466C297.268 33.8868 297.113 33.9251 296.94 33.9613C296.767 33.9935 296.594 34.0237 296.421 34.0518C296.248 34.076 296.091 34.0981 295.95 34.1183C295.648 34.1625 295.384 34.233 295.159 34.3295C294.934 34.4261 294.759 34.5569 294.634 34.7219C294.509 34.8829 294.447 35.0842 294.447 35.3256C294.447 35.6758 294.573 35.9434 294.827 36.1286C295.085 36.3097 295.41 36.4002 295.805 36.4002ZM302.286 38V28.7273H304.779V30.3452H304.875C305.044 29.7696 305.328 29.335 305.727 29.0412C306.125 28.7434 306.584 28.5945 307.103 28.5945C307.232 28.5945 307.371 28.6025 307.52 28.6186C307.668 28.6347 307.799 28.6568 307.912 28.685V30.967C307.791 30.9308 307.624 30.8986 307.411 30.8704C307.198 30.8422 307.002 30.8281 306.825 30.8281C306.447 30.8281 306.109 30.9106 305.811 31.0756C305.517 31.2366 305.284 31.462 305.111 31.7518C304.942 32.0415 304.857 32.3756 304.857 32.7539V38H302.286ZM314.639 28.7273V30.6591H309.054V28.7273H314.639ZM310.322 26.5057H312.894V35.1506C312.894 35.388 312.93 35.5732 313.003 35.706C313.075 35.8348 313.176 35.9253 313.304 35.9776C313.437 36.0299 313.59 36.0561 313.763 36.0561C313.884 36.0561 314.005 36.046 314.125 36.0259C314.246 36.0018 314.339 35.9837 314.403 35.9716L314.808 37.8853C314.679 37.9255 314.498 37.9718 314.264 38.0241C314.031 38.0805 313.747 38.1147 313.413 38.1268C312.793 38.1509 312.25 38.0684 311.783 37.8793C311.32 37.6901 310.96 37.3963 310.703 36.9979C310.445 36.5994 310.318 36.0964 310.322 35.4886V26.5057Z" fill="#F2E9E1"/>
<rect width="552" height="64.4" transform="translate(0 84.4)" fill="#56949F"/>
<rect x="194" y="93.6" width="102" height="46" fill="#31748F"/>
<rect x="306" y="93.6" width="46" height="46" fill="#31748F"/>
<rect x="362" y="93.6" width="180" height="46" fill="#31748F"/>
<path d="M246.975 113.127V115.059H241.252V113.127H246.975ZM242.562 122.4V112.457C242.562 111.785 242.693 111.228 242.955 110.785C243.22 110.342 243.582 110.01 244.041 109.789C244.5 109.568 245.021 109.457 245.605 109.457C245.999 109.457 246.359 109.487 246.685 109.547C247.015 109.608 247.261 109.662 247.422 109.71L246.963 111.642C246.862 111.61 246.738 111.58 246.589 111.552C246.444 111.523 246.295 111.509 246.142 111.509C245.764 111.509 245.5 111.598 245.351 111.775C245.202 111.948 245.128 112.192 245.128 112.505V122.4H242.562ZM251.118 110.036V122.4H248.546V110.036H251.118ZM257.404 122.581C256.45 122.581 255.629 122.388 254.941 122.002C254.257 121.611 253.73 121.06 253.359 120.347C252.989 119.631 252.804 118.784 252.804 117.806C252.804 116.852 252.989 116.015 253.359 115.295C253.73 114.574 254.251 114.013 254.923 113.61C255.599 113.208 256.392 113.007 257.301 113.007C257.913 113.007 258.483 113.105 259.01 113.302C259.541 113.496 260.004 113.787 260.398 114.178C260.797 114.568 261.107 115.059 261.328 115.651C261.549 116.238 261.66 116.927 261.66 117.715V118.422H253.83V116.828H259.239C259.239 116.458 259.159 116.13 258.998 115.844C258.837 115.558 258.613 115.335 258.328 115.174C258.046 115.009 257.718 114.926 257.344 114.926C256.953 114.926 256.607 115.017 256.305 115.198C256.007 115.375 255.774 115.615 255.605 115.916C255.436 116.214 255.349 116.546 255.345 116.912V118.428C255.345 118.887 255.43 119.283 255.599 119.617C255.772 119.951 256.015 120.209 256.329 120.39C256.643 120.571 257.016 120.661 257.446 120.661C257.732 120.661 257.994 120.621 258.231 120.541C258.468 120.46 258.672 120.339 258.841 120.178C259.01 120.017 259.139 119.82 259.227 119.587L261.606 119.744C261.485 120.315 261.237 120.814 260.863 121.241C260.493 121.664 260.014 121.994 259.426 122.231C258.843 122.464 258.169 122.581 257.404 122.581ZM265.321 113.127L267.024 116.369L268.769 113.127H271.407L268.72 117.764L271.479 122.4H268.853L267.024 119.194L265.225 122.4H262.569L265.321 117.764L262.665 113.127H265.321ZM278.33 116.303V118.343H272.691V116.303H278.33ZM284.747 122.581C283.793 122.581 282.972 122.388 282.284 122.002C281.6 121.611 281.072 121.06 280.702 120.347C280.332 119.631 280.147 118.784 280.147 117.806C280.147 116.852 280.332 116.015 280.702 115.295C281.072 114.574 281.593 114.013 282.266 113.61C282.942 113.208 283.735 113.007 284.644 113.007C285.256 113.007 285.825 113.105 286.353 113.302C286.884 113.496 287.347 113.787 287.741 114.178C288.14 114.568 288.449 115.059 288.671 115.651C288.892 116.238 289.003 116.927 289.003 117.715V118.422H281.173V116.828H286.582C286.582 116.458 286.501 116.13 286.341 115.844C286.18 115.558 285.956 115.335 285.67 115.174C285.389 115.009 285.061 114.926 284.686 114.926C284.296 114.926 283.95 115.017 283.648 115.198C283.35 115.375 283.117 115.615 282.948 115.916C282.779 116.214 282.692 116.546 282.688 116.912V118.428C282.688 118.887 282.773 119.283 282.942 119.617C283.115 119.951 283.358 120.209 283.672 120.39C283.986 120.571 284.358 120.661 284.789 120.661C285.075 120.661 285.336 120.621 285.574 120.541C285.811 120.46 286.015 120.339 286.184 120.178C286.353 120.017 286.481 119.82 286.57 119.587L288.948 119.744C288.828 120.315 288.58 120.814 288.206 121.241C287.836 121.664 287.357 121.994 286.769 122.231C286.186 122.464 285.511 122.581 284.747 122.581ZM293.253 117.039V122.4H290.681V113.127H293.132V114.763H293.241C293.446 114.224 293.79 113.797 294.273 113.483C294.756 113.166 295.342 113.007 296.03 113.007C296.674 113.007 297.235 113.147 297.714 113.429C298.193 113.711 298.565 114.113 298.831 114.637C299.097 115.156 299.229 115.775 299.229 116.496V122.4H296.658V116.955C296.662 116.387 296.517 115.945 296.223 115.627C295.929 115.305 295.525 115.144 295.01 115.144C294.663 115.144 294.358 115.218 294.092 115.367C293.83 115.516 293.625 115.733 293.476 116.019C293.331 116.301 293.257 116.641 293.253 117.039ZM304.673 122.551C303.969 122.551 303.331 122.37 302.759 122.008C302.192 121.641 301.741 121.104 301.407 120.396C301.077 119.683 300.912 118.81 300.912 117.776C300.912 116.713 301.083 115.83 301.425 115.126C301.767 114.417 302.222 113.888 302.79 113.538C303.361 113.184 303.987 113.007 304.667 113.007C305.186 113.007 305.619 113.095 305.965 113.272C306.315 113.445 306.597 113.663 306.81 113.924C307.028 114.182 307.193 114.435 307.305 114.685H307.384V110.036H309.949V122.4H307.414V120.915H307.305C307.185 121.173 307.013 121.428 306.792 121.682C306.575 121.931 306.291 122.138 305.941 122.303C305.595 122.468 305.172 122.551 304.673 122.551ZM305.488 120.504C305.903 120.504 306.253 120.392 306.539 120.166C306.828 119.937 307.05 119.617 307.203 119.206C307.36 118.796 307.438 118.315 307.438 117.764C307.438 117.212 307.362 116.733 307.209 116.327C307.056 115.92 306.834 115.606 306.545 115.385C306.255 115.164 305.903 115.053 305.488 115.053C305.066 115.053 304.709 115.168 304.42 115.397C304.13 115.627 303.91 115.945 303.762 116.351C303.613 116.758 303.538 117.228 303.538 117.764C303.538 118.303 303.613 118.78 303.762 119.194C303.915 119.605 304.134 119.927 304.42 120.16C304.709 120.39 305.066 120.504 305.488 120.504Z" fill="#F2E9E1"/>
<rect width="552" height="64.4" transform="translate(0 168.8)" fill="#56949F"/>
<rect x="102" y="178" width="102" height="46" fill="#31748F"/>
<rect x="214" y="178" width="46" height="46" fill="#31748F"/>
<rect x="270" y="178" width="180" height="46" fill="#31748F"/>
<path d="M254.047 206.981C253.098 206.981 252.281 206.78 251.596 206.377C250.916 205.971 250.393 205.407 250.027 204.687C249.665 203.967 249.484 203.138 249.484 202.2C249.484 201.25 249.667 200.417 250.033 199.701C250.403 198.98 250.928 198.419 251.609 198.016C252.289 197.61 253.098 197.407 254.035 197.407C254.844 197.407 255.553 197.553 256.16 197.847C256.768 198.141 257.249 198.554 257.603 199.085C257.957 199.616 258.153 200.24 258.189 200.956H255.762C255.694 200.493 255.512 200.121 255.219 199.839C254.929 199.554 254.549 199.411 254.078 199.411C253.679 199.411 253.331 199.519 253.033 199.737C252.739 199.95 252.51 200.262 252.345 200.673C252.18 201.083 252.098 201.58 252.098 202.164C252.098 202.755 252.178 203.258 252.339 203.673C252.504 204.087 252.735 204.403 253.033 204.621C253.331 204.838 253.679 204.947 254.078 204.947C254.371 204.947 254.635 204.886 254.868 204.766C255.106 204.645 255.301 204.47 255.454 204.24C255.611 204.007 255.714 203.727 255.762 203.401H258.189C258.149 204.11 257.955 204.733 257.609 205.273C257.267 205.808 256.794 206.226 256.191 206.528C255.587 206.83 254.872 206.981 254.047 206.981ZM264.061 206.981C263.107 206.981 262.286 206.788 261.598 206.402C260.914 206.011 260.387 205.46 260.016 204.747C259.646 204.031 259.461 203.184 259.461 202.206C259.461 201.252 259.646 200.415 260.016 199.695C260.387 198.974 260.908 198.413 261.58 198.01C262.256 197.608 263.049 197.407 263.959 197.407C264.57 197.407 265.14 197.505 265.667 197.702C266.198 197.896 266.661 198.187 267.056 198.578C267.454 198.968 267.764 199.459 267.985 200.051C268.207 200.638 268.317 201.327 268.317 202.115V202.822H260.487V201.228H265.896C265.896 200.858 265.816 200.53 265.655 200.244C265.494 199.958 265.271 199.735 264.985 199.574C264.703 199.409 264.375 199.326 264.001 199.326C263.61 199.326 263.264 199.417 262.962 199.598C262.665 199.775 262.431 200.014 262.262 200.316C262.093 200.614 262.007 200.946 262.003 201.312V202.828C262.003 203.286 262.087 203.683 262.256 204.017C262.429 204.351 262.673 204.609 262.987 204.79C263.301 204.971 263.673 205.061 264.103 205.061C264.389 205.061 264.651 205.021 264.888 204.941C265.126 204.86 265.329 204.739 265.498 204.578C265.667 204.417 265.796 204.22 265.884 203.987L268.263 204.144C268.142 204.715 267.895 205.214 267.52 205.641C267.15 206.063 266.671 206.394 266.084 206.631C265.5 206.864 264.826 206.981 264.061 206.981ZM272.567 201.439V206.8H269.996V197.527H272.447V199.163H272.555C272.76 198.624 273.105 198.197 273.587 197.883C274.07 197.565 274.656 197.407 275.344 197.407C275.988 197.407 276.55 197.547 277.029 197.829C277.507 198.111 277.88 198.513 278.145 199.036C278.411 199.556 278.544 200.175 278.544 200.896V206.8H275.972V201.355C275.976 200.787 275.831 200.344 275.537 200.027C275.244 199.705 274.839 199.544 274.324 199.544C273.978 199.544 273.672 199.618 273.406 199.767C273.145 199.916 272.94 200.133 272.791 200.419C272.646 200.701 272.571 201.041 272.567 201.439ZM285.503 197.527V199.459H279.919V197.527H285.503ZM281.186 195.306H283.758V203.951C283.758 204.188 283.794 204.373 283.867 204.506C283.939 204.635 284.04 204.725 284.169 204.778C284.302 204.83 284.454 204.856 284.628 204.856C284.748 204.856 284.869 204.846 284.99 204.826C285.11 204.802 285.203 204.784 285.267 204.772L285.672 206.685C285.543 206.726 285.362 206.772 285.129 206.824C284.895 206.88 284.611 206.915 284.277 206.927C283.658 206.951 283.114 206.868 282.647 206.679C282.185 206.49 281.824 206.196 281.567 205.798C281.309 205.399 281.182 204.896 281.186 204.289V195.306ZM291.304 206.981C290.351 206.981 289.53 206.788 288.841 206.402C288.157 206.011 287.63 205.46 287.26 204.747C286.889 204.031 286.704 203.184 286.704 202.206C286.704 201.252 286.889 200.415 287.26 199.695C287.63 198.974 288.151 198.413 288.823 198.01C289.499 197.608 290.292 197.407 291.202 197.407C291.813 197.407 292.383 197.505 292.91 197.702C293.441 197.896 293.904 198.187 294.299 198.578C294.697 198.968 295.007 199.459 295.228 200.051C295.45 200.638 295.56 201.327 295.56 202.115V202.822H287.731V201.228H293.14C293.14 200.858 293.059 200.53 292.898 200.244C292.737 199.958 292.514 199.735 292.228 199.574C291.946 199.409 291.618 199.326 291.244 199.326C290.854 199.326 290.508 199.417 290.206 199.598C289.908 199.775 289.674 200.014 289.505 200.316C289.336 200.614 289.25 200.946 289.246 201.312V202.828C289.246 203.286 289.33 203.683 289.499 204.017C289.672 204.351 289.916 204.609 290.23 204.79C290.544 204.971 290.916 205.061 291.347 205.061C291.632 205.061 291.894 205.021 292.131 204.941C292.369 204.86 292.572 204.739 292.741 204.578C292.91 204.417 293.039 204.22 293.128 203.987L295.506 204.144C295.385 204.715 295.138 205.214 294.764 205.641C294.393 206.063 293.914 206.394 293.327 206.631C292.743 206.864 292.069 206.981 291.304 206.981ZM297.239 206.8V197.527H299.732V199.145H299.829C299.998 198.57 300.281 198.135 300.68 197.841C301.078 197.543 301.537 197.394 302.056 197.394C302.185 197.394 302.324 197.402 302.473 197.419C302.622 197.435 302.752 197.457 302.865 197.485V199.767C302.744 199.731 302.577 199.699 302.364 199.67C302.151 199.642 301.956 199.628 301.778 199.628C301.4 199.628 301.062 199.711 300.764 199.876C300.47 200.037 300.237 200.262 300.064 200.552C299.895 200.842 299.81 201.176 299.81 201.554V206.8H297.239Z" fill="#F2E9E1"/>
<rect width="552" height="64.4" transform="translate(0 253.2)" fill="#56949F"/>
<rect x="10" y="262.4" width="102" height="46" fill="#31748F"/>
<rect x="214" y="262.4" width="46" height="46" fill="#31748F"/>
<rect x="362" y="262.4" width="180" height="46" fill="#31748F"/>
<path d="M219.757 285.571L217.402 285.716C217.362 285.515 217.275 285.334 217.143 285.173C217.01 285.008 216.835 284.877 216.617 284.781C216.404 284.68 216.149 284.63 215.851 284.63C215.452 284.63 215.116 284.714 214.843 284.883C214.569 285.048 214.432 285.27 214.432 285.547C214.432 285.769 214.521 285.956 214.698 286.109C214.875 286.262 215.179 286.384 215.609 286.477L217.288 286.815C218.189 287 218.861 287.298 219.304 287.709C219.747 288.119 219.968 288.658 219.968 289.326C219.968 289.934 219.789 290.467 219.431 290.926C219.076 291.385 218.589 291.743 217.97 292.001C217.354 292.254 216.644 292.381 215.839 292.381C214.611 292.381 213.633 292.126 212.905 291.614C212.18 291.099 211.756 290.399 211.631 289.514L214.16 289.381C214.237 289.755 214.422 290.041 214.716 290.238C215.01 290.431 215.386 290.528 215.845 290.528C216.295 290.528 216.658 290.441 216.931 290.268C217.209 290.091 217.35 289.864 217.354 289.586C217.35 289.353 217.251 289.161 217.058 289.013C216.865 288.86 216.567 288.743 216.165 288.662L214.559 288.342C213.653 288.161 212.979 287.847 212.536 287.401C212.098 286.954 211.878 286.384 211.878 285.692C211.878 285.097 212.039 284.583 212.361 284.153C212.687 283.722 213.144 283.39 213.732 283.157C214.323 282.923 215.016 282.807 215.808 282.807C216.98 282.807 217.901 283.054 218.573 283.549C219.25 284.044 219.644 284.718 219.757 285.571ZM221.587 295.677V282.927H224.123V284.485H224.238C224.35 284.235 224.513 283.982 224.727 283.724C224.944 283.463 225.226 283.245 225.572 283.072C225.922 282.895 226.356 282.807 226.876 282.807C227.552 282.807 228.176 282.984 228.747 283.338C229.319 283.688 229.775 284.217 230.117 284.926C230.46 285.63 230.631 286.513 230.631 287.576C230.631 288.61 230.464 289.483 230.13 290.196C229.8 290.904 229.349 291.441 228.777 291.808C228.21 292.17 227.574 292.351 226.87 292.351C226.371 292.351 225.946 292.268 225.596 292.103C225.25 291.938 224.966 291.731 224.745 291.482C224.523 291.228 224.354 290.973 224.238 290.715H224.159V295.677H221.587ZM224.105 287.564C224.105 288.115 224.181 288.596 224.334 289.006C224.487 289.417 224.708 289.737 224.998 289.966C225.288 290.192 225.64 290.304 226.055 290.304C226.473 290.304 226.827 290.19 227.117 289.96C227.407 289.727 227.626 289.405 227.775 288.994C227.928 288.58 228.005 288.103 228.005 287.564C228.005 287.028 227.93 286.557 227.781 286.151C227.632 285.745 227.413 285.427 227.123 285.197C226.833 284.968 226.477 284.853 226.055 284.853C225.636 284.853 225.282 284.964 224.992 285.185C224.706 285.406 224.487 285.72 224.334 286.127C224.181 286.533 224.105 287.012 224.105 287.564ZM234.989 292.375C234.398 292.375 233.87 292.272 233.408 292.067C232.945 291.858 232.579 291.55 232.309 291.144C232.043 290.733 231.91 290.222 231.91 289.61C231.91 289.095 232.005 288.662 232.194 288.312C232.383 287.962 232.641 287.68 232.967 287.467C233.293 287.254 233.663 287.093 234.078 286.984C234.496 286.875 234.935 286.799 235.394 286.755C235.933 286.698 236.368 286.646 236.698 286.598C237.028 286.545 237.267 286.469 237.416 286.368C237.565 286.268 237.64 286.119 237.64 285.922V285.885C237.64 285.503 237.519 285.207 237.277 284.998C237.04 284.789 236.702 284.684 236.263 284.684C235.8 284.684 235.432 284.787 235.158 284.992C234.885 285.193 234.704 285.447 234.615 285.753L232.236 285.559C232.357 284.996 232.595 284.509 232.949 284.098C233.303 283.684 233.76 283.366 234.319 283.145C234.883 282.919 235.535 282.807 236.275 282.807C236.79 282.807 237.283 282.867 237.754 282.988C238.229 283.108 238.65 283.296 239.016 283.549C239.386 283.803 239.678 284.129 239.891 284.527C240.105 284.921 240.211 285.394 240.211 285.946V292.2H237.772V290.914H237.7C237.551 291.204 237.352 291.459 237.102 291.681C236.853 291.898 236.553 292.069 236.203 292.194C235.853 292.315 235.448 292.375 234.989 292.375ZM235.726 290.6C236.104 290.6 236.438 290.526 236.728 290.377C237.018 290.224 237.245 290.019 237.41 289.761C237.575 289.504 237.658 289.212 237.658 288.886V287.902C237.577 287.954 237.466 288.002 237.326 288.047C237.189 288.087 237.034 288.125 236.861 288.161C236.688 288.194 236.515 288.224 236.342 288.252C236.169 288.276 236.012 288.298 235.871 288.318C235.569 288.363 235.305 288.433 235.08 288.53C234.854 288.626 234.679 288.757 234.555 288.922C234.43 289.083 234.367 289.284 234.367 289.526C234.367 289.876 234.494 290.143 234.748 290.329C235.005 290.51 235.331 290.6 235.726 290.6ZM246.396 292.381C245.446 292.381 244.629 292.18 243.945 291.777C243.265 291.371 242.742 290.807 242.375 290.087C242.013 289.367 241.832 288.538 241.832 287.6C241.832 286.65 242.015 285.817 242.382 285.101C242.752 284.38 243.277 283.819 243.957 283.416C244.637 283.01 245.446 282.807 246.384 282.807C247.193 282.807 247.901 282.953 248.509 283.247C249.117 283.541 249.598 283.954 249.952 284.485C250.306 285.016 250.501 285.64 250.537 286.356H248.111C248.042 285.893 247.861 285.521 247.567 285.239C247.277 284.954 246.897 284.811 246.426 284.811C246.028 284.811 245.68 284.919 245.382 285.137C245.088 285.35 244.859 285.662 244.694 286.073C244.529 286.483 244.446 286.98 244.446 287.564C244.446 288.155 244.527 288.658 244.688 289.073C244.853 289.487 245.084 289.803 245.382 290.021C245.68 290.238 246.028 290.347 246.426 290.347C246.72 290.347 246.984 290.286 247.217 290.166C247.455 290.045 247.65 289.87 247.803 289.64C247.96 289.407 248.062 289.127 248.111 288.801H250.537C250.497 289.51 250.304 290.133 249.958 290.673C249.616 291.208 249.143 291.627 248.539 291.928C247.936 292.23 247.221 292.381 246.396 292.381ZM256.41 292.381C255.456 292.381 254.635 292.188 253.947 291.802C253.263 291.411 252.735 290.86 252.365 290.147C251.995 289.431 251.81 288.584 251.81 287.606C251.81 286.652 251.995 285.815 252.365 285.095C252.735 284.374 253.257 283.813 253.929 283.41C254.605 283.008 255.398 282.807 256.307 282.807C256.919 282.807 257.488 282.905 258.016 283.102C258.547 283.296 259.01 283.587 259.404 283.978C259.803 284.368 260.112 284.859 260.334 285.451C260.555 286.038 260.666 286.727 260.666 287.515V288.222H252.836V286.628H258.245C258.245 286.258 258.165 285.93 258.004 285.644C257.843 285.358 257.619 285.135 257.333 284.974C257.052 284.809 256.724 284.726 256.349 284.726C255.959 284.726 255.613 284.817 255.311 284.998C255.013 285.175 254.78 285.415 254.611 285.716C254.442 286.014 254.355 286.346 254.351 286.712V288.228C254.351 288.687 254.436 289.083 254.605 289.417C254.778 289.751 255.021 290.009 255.335 290.19C255.649 290.371 256.021 290.461 256.452 290.461C256.738 290.461 256.999 290.421 257.237 290.341C257.474 290.26 257.678 290.139 257.847 289.978C258.016 289.817 258.144 289.62 258.233 289.387L260.612 289.544C260.491 290.115 260.243 290.614 259.869 291.041C259.499 291.464 259.02 291.794 258.432 292.031C257.849 292.264 257.175 292.381 256.41 292.381ZM268.121 286.103V288.143H262.483V286.103H268.121ZM270.361 292.2V279.836H272.933V284.485H273.011C273.124 284.235 273.287 283.982 273.5 283.724C273.718 283.463 273.999 283.245 274.346 283.072C274.696 282.895 275.13 282.807 275.65 282.807C276.326 282.807 276.95 282.984 277.521 283.338C278.092 283.688 278.549 284.217 278.891 284.926C279.233 285.63 279.405 286.513 279.405 287.576C279.405 288.61 279.237 289.483 278.903 290.196C278.573 290.904 278.123 291.441 277.551 291.808C276.984 292.17 276.348 292.351 275.644 292.351C275.144 292.351 274.72 292.268 274.37 292.103C274.024 291.938 273.74 291.731 273.519 291.482C273.297 291.228 273.128 290.973 273.011 290.715H272.897V292.2H270.361ZM272.879 287.564C272.879 288.115 272.955 288.596 273.108 289.006C273.261 289.417 273.482 289.737 273.772 289.966C274.062 290.192 274.414 290.304 274.829 290.304C275.247 290.304 275.601 290.19 275.891 289.96C276.181 289.727 276.4 289.405 276.549 288.994C276.702 288.58 276.778 288.103 276.778 287.564C276.778 287.028 276.704 286.557 276.555 286.151C276.406 285.745 276.187 285.427 275.897 285.197C275.607 284.968 275.251 284.853 274.829 284.853C274.41 284.853 274.056 284.964 273.766 285.185C273.48 285.406 273.261 285.72 273.108 286.127C272.955 286.533 272.879 287.012 272.879 287.564ZM285.346 292.381C284.393 292.381 283.572 292.188 282.883 291.802C282.199 291.411 281.672 290.86 281.302 290.147C280.931 289.431 280.746 288.584 280.746 287.606C280.746 286.652 280.931 285.815 281.302 285.095C281.672 284.374 282.193 283.813 282.865 283.41C283.541 283.008 284.334 282.807 285.244 282.807C285.855 282.807 286.425 282.905 286.952 283.102C287.483 283.296 287.946 283.587 288.341 283.978C288.739 284.368 289.049 284.859 289.27 285.451C289.492 286.038 289.602 286.727 289.602 287.515V288.222H281.773V286.628H287.182C287.182 286.258 287.101 285.93 286.94 285.644C286.779 285.358 286.556 285.135 286.27 284.974C285.988 284.809 285.66 284.726 285.286 284.726C284.896 284.726 284.549 284.817 284.248 284.998C283.95 285.175 283.716 285.415 283.547 285.716C283.378 286.014 283.292 286.346 283.288 286.712V288.228C283.288 288.687 283.372 289.083 283.541 289.417C283.714 289.751 283.958 290.009 284.272 290.19C284.586 290.371 284.958 290.461 285.389 290.461C285.674 290.461 285.936 290.421 286.173 290.341C286.411 290.26 286.614 290.139 286.783 289.978C286.952 289.817 287.081 289.62 287.17 289.387L289.548 289.544C289.427 290.115 289.18 290.614 288.806 291.041C288.435 291.464 287.956 291.794 287.369 292.031C286.785 292.264 286.111 292.381 285.346 292.381ZM296.213 282.927V284.859H290.629V282.927H296.213ZM291.896 280.706H294.468V289.351C294.468 289.588 294.504 289.773 294.577 289.906C294.649 290.035 294.75 290.125 294.879 290.178C295.011 290.23 295.164 290.256 295.337 290.256C295.458 290.256 295.579 290.246 295.7 290.226C295.82 290.202 295.913 290.184 295.977 290.172L296.382 292.085C296.253 292.126 296.072 292.172 295.839 292.224C295.605 292.281 295.321 292.315 294.987 292.327C294.368 292.351 293.824 292.268 293.357 292.079C292.895 291.89 292.534 291.596 292.277 291.198C292.019 290.799 291.892 290.296 291.896 289.689V280.706ZM299.717 292.2L297.194 282.927H299.796L301.233 289.157H301.317L302.814 282.927H305.368L306.889 289.121H306.968L308.38 282.927H310.976L308.459 292.2H305.736L304.142 286.368H304.028L302.434 292.2H299.717ZM316.341 292.381C315.388 292.381 314.567 292.188 313.878 291.802C313.194 291.411 312.667 290.86 312.297 290.147C311.926 289.431 311.741 288.584 311.741 287.606C311.741 286.652 311.926 285.815 312.297 285.095C312.667 284.374 313.188 283.813 313.86 283.41C314.536 283.008 315.329 282.807 316.239 282.807C316.851 282.807 317.42 282.905 317.947 283.102C318.479 283.296 318.941 283.587 319.336 283.978C319.734 284.368 320.044 284.859 320.265 285.451C320.487 286.038 320.598 286.727 320.598 287.515V288.222H312.768V286.628H318.177C318.177 286.258 318.096 285.93 317.935 285.644C317.774 285.358 317.551 285.135 317.265 284.974C316.983 284.809 316.655 284.726 316.281 284.726C315.891 284.726 315.545 284.817 315.243 284.998C314.945 285.175 314.712 285.415 314.542 285.716C314.373 286.014 314.287 286.346 314.283 286.712V288.228C314.283 288.687 314.367 289.083 314.536 289.417C314.71 289.751 314.953 290.009 315.267 290.19C315.581 290.371 315.953 290.461 316.384 290.461C316.669 290.461 316.931 290.421 317.169 290.341C317.406 290.26 317.609 290.139 317.778 289.978C317.947 289.817 318.076 289.62 318.165 289.387L320.543 289.544C320.422 290.115 320.175 290.614 319.801 291.041C319.43 291.464 318.951 291.794 318.364 292.031C317.78 292.264 317.106 292.381 316.341 292.381ZM326.502 292.381C325.548 292.381 324.727 292.188 324.039 291.802C323.354 291.411 322.827 290.86 322.457 290.147C322.087 289.431 321.902 288.584 321.902 287.606C321.902 286.652 322.087 285.815 322.457 285.095C322.827 284.374 323.348 283.813 324.02 283.41C324.697 283.008 325.489 282.807 326.399 282.807C327.011 282.807 327.58 282.905 328.107 283.102C328.639 283.296 329.102 283.587 329.496 283.978C329.894 284.368 330.204 284.859 330.426 285.451C330.647 286.038 330.758 286.727 330.758 287.515V288.222H322.928V286.628H328.337C328.337 286.258 328.256 285.93 328.095 285.644C327.934 285.358 327.711 285.135 327.425 284.974C327.144 284.809 326.816 284.726 326.441 284.726C326.051 284.726 325.705 284.817 325.403 284.998C325.105 285.175 324.872 285.415 324.703 285.716C324.534 286.014 324.447 286.346 324.443 286.712V288.228C324.443 288.687 324.528 289.083 324.697 289.417C324.87 289.751 325.113 290.009 325.427 290.19C325.741 290.371 326.113 290.461 326.544 290.461C326.83 290.461 327.091 290.421 327.329 290.341C327.566 290.26 327.769 290.139 327.938 289.978C328.107 289.817 328.236 289.62 328.325 289.387L330.703 289.544C330.583 290.115 330.335 290.614 329.961 291.041C329.591 291.464 329.112 291.794 328.524 292.031C327.94 292.264 327.266 292.381 326.502 292.381ZM335.008 286.839V292.2H332.436V282.927H334.887V284.563H334.996C335.201 284.024 335.545 283.597 336.028 283.283C336.511 282.966 337.096 282.807 337.785 282.807C338.429 282.807 338.99 282.947 339.469 283.229C339.948 283.511 340.32 283.913 340.586 284.437C340.851 284.956 340.984 285.575 340.984 286.296V292.2H338.413V286.755C338.417 286.187 338.272 285.745 337.978 285.427C337.684 285.105 337.28 284.944 336.764 284.944C336.418 284.944 336.112 285.018 335.847 285.167C335.585 285.316 335.38 285.533 335.231 285.819C335.086 286.101 335.012 286.441 335.008 286.839Z" fill="#F2E9E1"/>
<rect width="552" height="64.4" transform="translate(0 337.6)" fill="#56949F"/>
<rect x="44" y="346.8" width="102" height="46" fill="#31748F"/>
<rect x="214" y="346.8" width="46" height="46" fill="#31748F"/>
<rect x="328" y="346.8" width="180" height="46" fill="#31748F"/>
<path d="M226.221 368.972L223.867 369.116C223.826 368.915 223.74 368.734 223.607 368.573C223.474 368.408 223.299 368.277 223.082 368.181C222.868 368.08 222.613 368.03 222.315 368.03C221.917 368.03 221.581 368.114 221.307 368.283C221.033 368.448 220.896 368.67 220.896 368.947C220.896 369.169 220.985 369.356 221.162 369.509C221.339 369.662 221.643 369.785 222.074 369.877L223.752 370.215C224.653 370.4 225.325 370.698 225.768 371.109C226.211 371.519 226.432 372.058 226.432 372.727C226.432 373.334 226.253 373.867 225.895 374.326C225.541 374.785 225.054 375.143 224.434 375.401C223.818 375.654 223.108 375.781 222.303 375.781C221.075 375.781 220.098 375.526 219.369 375.015C218.645 374.499 218.22 373.799 218.095 372.914L220.625 372.781C220.701 373.155 220.886 373.441 221.18 373.638C221.474 373.831 221.85 373.928 222.309 373.928C222.76 373.928 223.122 373.841 223.396 373.668C223.673 373.491 223.814 373.264 223.818 372.986C223.814 372.753 223.716 372.562 223.522 372.413C223.329 372.26 223.031 372.143 222.629 372.062L221.023 371.742C220.118 371.561 219.444 371.247 219.001 370.801C218.562 370.354 218.343 369.785 218.343 369.092C218.343 368.497 218.504 367.984 218.826 367.553C219.152 367.122 219.609 366.79 220.196 366.557C220.788 366.323 221.48 366.207 222.273 366.207C223.444 366.207 224.366 366.454 225.038 366.949C225.714 367.444 226.108 368.118 226.221 368.972ZM228.052 379.077V366.327H230.587V367.885H230.702C230.815 367.635 230.978 367.382 231.191 367.124C231.408 366.863 231.69 366.645 232.036 366.472C232.386 366.295 232.821 366.207 233.34 366.207C234.016 366.207 234.64 366.384 235.211 366.738C235.783 367.088 236.24 367.617 236.582 368.326C236.924 369.03 237.095 369.913 237.095 370.976C237.095 372.01 236.928 372.883 236.594 373.596C236.264 374.304 235.813 374.841 235.242 375.208C234.674 375.57 234.038 375.751 233.334 375.751C232.835 375.751 232.41 375.669 232.06 375.504C231.714 375.338 231.43 375.131 231.209 374.882C230.988 374.628 230.819 374.373 230.702 374.115H230.623V379.077H228.052ZM230.569 370.964C230.569 371.515 230.646 371.996 230.798 372.407C230.951 372.817 231.173 373.137 231.463 373.366C231.752 373.592 232.104 373.705 232.519 373.705C232.938 373.705 233.292 373.59 233.581 373.36C233.871 373.127 234.091 372.805 234.24 372.394C234.392 371.98 234.469 371.503 234.469 370.964C234.469 370.428 234.394 369.958 234.246 369.551C234.097 369.145 233.877 368.827 233.588 368.597C233.298 368.368 232.942 368.253 232.519 368.253C232.1 368.253 231.746 368.364 231.456 368.585C231.171 368.807 230.951 369.12 230.798 369.527C230.646 369.933 230.569 370.412 230.569 370.964ZM241.454 375.775C240.862 375.775 240.335 375.673 239.872 375.467C239.409 375.258 239.043 374.95 238.773 374.544C238.508 374.133 238.375 373.622 238.375 373.01C238.375 372.495 238.469 372.062 238.659 371.712C238.848 371.362 239.105 371.08 239.431 370.867C239.757 370.654 240.128 370.493 240.542 370.384C240.961 370.276 241.399 370.199 241.858 370.155C242.397 370.098 242.832 370.046 243.162 369.998C243.492 369.946 243.732 369.869 243.881 369.768C244.029 369.668 244.104 369.519 244.104 369.322V369.285C244.104 368.903 243.983 368.607 243.742 368.398C243.504 368.189 243.166 368.084 242.727 368.084C242.265 368.084 241.896 368.187 241.623 368.392C241.349 368.593 241.168 368.847 241.079 369.153L238.701 368.959C238.822 368.396 239.059 367.909 239.413 367.499C239.767 367.084 240.224 366.766 240.784 366.545C241.347 366.319 241.999 366.207 242.74 366.207C243.255 366.207 243.748 366.267 244.219 366.388C244.693 366.508 245.114 366.696 245.48 366.949C245.851 367.203 246.142 367.529 246.356 367.927C246.569 368.322 246.676 368.794 246.676 369.346V375.6H244.237V374.314H244.164C244.015 374.604 243.816 374.86 243.567 375.081C243.317 375.298 243.017 375.469 242.667 375.594C242.317 375.715 241.912 375.775 241.454 375.775ZM242.19 374C242.568 374 242.903 373.926 243.192 373.777C243.482 373.624 243.709 373.419 243.874 373.161C244.039 372.904 244.122 372.612 244.122 372.286V371.302C244.041 371.354 243.931 371.402 243.79 371.447C243.653 371.487 243.498 371.525 243.325 371.561C243.152 371.594 242.979 371.624 242.806 371.652C242.633 371.676 242.476 371.698 242.335 371.718C242.033 371.763 241.77 371.833 241.544 371.93C241.319 372.026 241.144 372.157 241.019 372.322C240.894 372.483 240.832 372.684 240.832 372.926C240.832 373.276 240.959 373.544 241.212 373.729C241.47 373.91 241.796 374 242.19 374ZM252.86 375.781C251.911 375.781 251.094 375.58 250.409 375.178C249.729 374.771 249.206 374.208 248.84 373.487C248.478 372.767 248.297 371.938 248.297 371C248.297 370.05 248.48 369.217 248.846 368.501C249.216 367.78 249.741 367.219 250.422 366.816C251.102 366.41 251.911 366.207 252.848 366.207C253.657 366.207 254.366 366.354 254.973 366.647C255.581 366.941 256.062 367.354 256.416 367.885C256.77 368.416 256.966 369.04 257.002 369.756H254.575C254.507 369.294 254.325 368.921 254.032 368.64C253.742 368.354 253.362 368.211 252.891 368.211C252.492 368.211 252.144 368.32 251.846 368.537C251.552 368.75 251.323 369.062 251.158 369.473C250.993 369.883 250.911 370.38 250.911 370.964C250.911 371.555 250.991 372.058 251.152 372.473C251.317 372.888 251.548 373.203 251.846 373.421C252.144 373.638 252.492 373.747 252.891 373.747C253.184 373.747 253.448 373.686 253.681 373.566C253.919 373.445 254.114 373.27 254.267 373.04C254.424 372.807 254.527 372.527 254.575 372.201H257.002C256.962 372.91 256.768 373.533 256.422 374.073C256.08 374.608 255.607 375.027 255.004 375.328C254.4 375.63 253.685 375.781 252.86 375.781ZM262.874 375.781C261.92 375.781 261.099 375.588 260.411 375.202C259.727 374.811 259.2 374.26 258.829 373.548C258.459 372.831 258.274 371.984 258.274 371.006C258.274 370.052 258.459 369.215 258.829 368.495C259.2 367.774 259.721 367.213 260.393 366.81C261.069 366.408 261.862 366.207 262.772 366.207C263.383 366.207 263.953 366.305 264.48 366.502C265.011 366.696 265.474 366.987 265.869 367.378C266.267 367.768 266.577 368.259 266.798 368.851C267.02 369.438 267.13 370.127 267.13 370.915V371.622H259.3V370.028H264.709C264.709 369.658 264.629 369.33 264.468 369.044C264.307 368.758 264.084 368.535 263.798 368.374C263.516 368.209 263.188 368.126 262.814 368.126C262.423 368.126 262.077 368.217 261.775 368.398C261.478 368.575 261.244 368.815 261.075 369.116C260.906 369.414 260.82 369.746 260.816 370.113V371.628C260.816 372.087 260.9 372.483 261.069 372.817C261.242 373.151 261.486 373.409 261.8 373.59C262.114 373.771 262.486 373.861 262.916 373.861C263.202 373.861 263.464 373.821 263.701 373.741C263.939 373.66 264.142 373.539 264.311 373.379C264.48 373.218 264.609 373.02 264.697 372.787L267.076 372.944C266.955 373.515 266.708 374.014 266.333 374.441C265.963 374.864 265.484 375.194 264.897 375.431C264.313 375.664 263.639 375.781 262.874 375.781ZM274.586 369.503V371.543H268.947V369.503H274.586ZM279.421 375.775C278.83 375.775 278.303 375.673 277.84 375.467C277.377 375.258 277.011 374.95 276.741 374.544C276.475 374.133 276.343 373.622 276.343 373.01C276.343 372.495 276.437 372.062 276.626 371.712C276.815 371.362 277.073 371.08 277.399 370.867C277.725 370.654 278.095 370.493 278.51 370.384C278.928 370.276 279.367 370.199 279.826 370.155C280.365 370.098 280.8 370.046 281.13 369.998C281.46 369.946 281.699 369.869 281.848 369.768C281.997 369.668 282.072 369.519 282.072 369.322V369.285C282.072 368.903 281.951 368.607 281.709 368.398C281.472 368.189 281.134 368.084 280.695 368.084C280.232 368.084 279.864 368.187 279.59 368.392C279.317 368.593 279.136 368.847 279.047 369.153L276.669 368.959C276.789 368.396 277.027 367.909 277.381 367.499C277.735 367.084 278.192 366.766 278.751 366.545C279.315 366.319 279.967 366.207 280.707 366.207C281.222 366.207 281.715 366.267 282.186 366.388C282.661 366.508 283.082 366.696 283.448 366.949C283.818 367.203 284.11 367.529 284.323 367.927C284.537 368.322 284.643 368.794 284.643 369.346V375.6H282.204V374.314H282.132C281.983 374.604 281.784 374.86 281.534 375.081C281.285 375.298 280.985 375.469 280.635 375.594C280.285 375.715 279.88 375.775 279.421 375.775ZM280.158 374C280.536 374 280.87 373.926 281.16 373.777C281.45 373.624 281.677 373.419 281.842 373.161C282.007 372.904 282.09 372.612 282.09 372.286V371.302C282.009 371.354 281.899 371.402 281.758 371.447C281.621 371.487 281.466 371.525 281.293 371.561C281.12 371.594 280.947 371.624 280.774 371.652C280.601 371.676 280.444 371.698 280.303 371.718C280.001 371.763 279.737 371.833 279.512 371.93C279.287 372.026 279.112 372.157 278.987 372.322C278.862 372.483 278.8 372.684 278.8 372.926C278.8 373.276 278.926 373.544 279.18 373.729C279.438 373.91 279.764 374 280.158 374ZM286.639 375.6V366.327H289.132V367.945H289.228C289.397 367.37 289.681 366.935 290.08 366.641C290.478 366.343 290.937 366.195 291.456 366.195C291.585 366.195 291.724 366.203 291.873 366.219C292.022 366.235 292.152 366.257 292.265 366.285V368.567C292.144 368.531 291.977 368.499 291.764 368.47C291.551 368.442 291.355 368.428 291.178 368.428C290.8 368.428 290.462 368.511 290.164 368.676C289.87 368.837 289.637 369.062 289.464 369.352C289.295 369.642 289.21 369.976 289.21 370.354V375.6H286.639ZM297.353 375.781C296.415 375.781 295.604 375.582 294.92 375.184C294.24 374.781 293.714 374.222 293.344 373.505C292.974 372.785 292.789 371.95 292.789 371C292.789 370.042 292.974 369.205 293.344 368.489C293.714 367.768 294.24 367.209 294.92 366.81C295.604 366.408 296.415 366.207 297.353 366.207C298.29 366.207 299.099 366.408 299.779 366.81C300.464 367.209 300.991 367.768 301.361 368.489C301.731 369.205 301.917 370.042 301.917 371C301.917 371.95 301.731 372.785 301.361 373.505C300.991 374.222 300.464 374.781 299.779 375.184C299.099 375.582 298.29 375.781 297.353 375.781ZM297.365 373.789C297.791 373.789 298.147 373.668 298.433 373.427C298.719 373.181 298.934 372.847 299.079 372.425C299.228 372.002 299.303 371.521 299.303 370.982C299.303 370.443 299.228 369.962 299.079 369.539C298.934 369.116 298.719 368.782 298.433 368.537C298.147 368.291 297.791 368.169 297.365 368.169C296.934 368.169 296.572 368.291 296.278 368.537C295.988 368.782 295.769 369.116 295.62 369.539C295.475 369.962 295.403 370.443 295.403 370.982C295.403 371.521 295.475 372.002 295.62 372.425C295.769 372.847 295.988 373.181 296.278 373.427C296.572 373.668 296.934 373.789 297.365 373.789ZM309.535 371.652V366.327H312.107V375.6H309.638V373.916H309.541C309.332 374.459 308.984 374.896 308.497 375.226C308.014 375.556 307.424 375.721 306.728 375.721C306.108 375.721 305.563 375.58 305.092 375.298C304.621 375.017 304.253 374.616 303.987 374.097C303.726 373.578 303.593 372.956 303.589 372.231V366.327H306.161V371.773C306.165 372.32 306.311 372.753 306.601 373.071C306.891 373.389 307.279 373.548 307.766 373.548C308.076 373.548 308.366 373.477 308.636 373.336C308.905 373.191 309.123 372.978 309.288 372.696C309.457 372.415 309.539 372.066 309.535 371.652ZM316.736 370.239V375.6H314.164V366.327H316.615V367.963H316.724C316.929 367.424 317.273 366.997 317.756 366.684C318.239 366.366 318.824 366.207 319.513 366.207C320.157 366.207 320.718 366.347 321.197 366.629C321.676 366.911 322.048 367.313 322.314 367.837C322.579 368.356 322.712 368.976 322.712 369.696V375.6H320.141V370.155C320.145 369.587 320 369.145 319.706 368.827C319.412 368.505 319.008 368.344 318.492 368.344C318.146 368.344 317.84 368.418 317.575 368.567C317.313 368.716 317.108 368.933 316.959 369.219C316.814 369.501 316.74 369.841 316.736 370.239ZM328.156 375.751C327.452 375.751 326.814 375.57 326.242 375.208C325.675 374.841 325.224 374.304 324.89 373.596C324.56 372.883 324.395 372.01 324.395 370.976C324.395 369.913 324.566 369.03 324.908 368.326C325.25 367.617 325.705 367.088 326.273 366.738C326.844 366.384 327.47 366.207 328.15 366.207C328.669 366.207 329.102 366.295 329.448 366.472C329.798 366.645 330.08 366.863 330.293 367.124C330.51 367.382 330.675 367.635 330.788 367.885H330.867V363.236H333.432V375.6H330.897V374.115H330.788C330.667 374.373 330.496 374.628 330.275 374.882C330.058 375.131 329.774 375.338 329.424 375.504C329.078 375.669 328.655 375.751 328.156 375.751ZM328.971 373.705C329.386 373.705 329.736 373.592 330.021 373.366C330.311 373.137 330.533 372.817 330.686 372.407C330.843 371.996 330.921 371.515 330.921 370.964C330.921 370.412 330.845 369.933 330.692 369.527C330.539 369.12 330.317 368.807 330.028 368.585C329.738 368.364 329.386 368.253 328.971 368.253C328.548 368.253 328.192 368.368 327.903 368.597C327.613 368.827 327.393 369.145 327.244 369.551C327.096 369.958 327.021 370.428 327.021 370.964C327.021 371.503 327.096 371.98 327.244 372.394C327.397 372.805 327.617 373.127 327.903 373.36C328.192 373.59 328.548 373.705 328.971 373.705Z" fill="#F2E9E1"/>
</g>
<defs>
<clipPath id="clip0_773_260">
<rect width="552" height="402" fill="white"/>
</clipPath>
</defs>
</svg>
